<svg version="1.1" id="Слой_1" width="299" height="374" xmlns="http://www.w3.org/2000/svg" xmlns:xlink="http://www.w3.org/1999/xlink" x="0px" y="0px"
	 viewBox="0 0 298.7 389" style="enable-background:new 0 0 298.7 389;" xml:space="preserve" >
<g>
	<defs>
		<rect id="SVGID_1_" width="298.7" height="389"/>
	</defs>
	<clipPath id="SVGID_2_">
		<use xlink:href="#SVGID_1_"  style="overflow:visible;"/>
	</clipPath>
	<path class="st0" d="M203.8,236.9c6.3,0.9,10.8,4.2,15.2,8.7c4.1,4.6,8.1,10.6,9.9,17.2c1,3.3,2,6.7,2.8,10.2
		c0.7,3.4,1.6,6.9,1.6,10.3c0.3,6.8,0.2,13.1,0,18.3c-0.4-1.6-0.8-3.1-1.3-4.6c-0.7-2.6-1.6-5-2.5-7.3c-0.9-2.4-2-4.5-3-6.6
		c-2-4.1-5.2-7.5-7.7-10.1c-2.6-2.8-5.1-4.7-7.3-6.2c-4.3-3-7.3-3.9-7.3-3.9s2.7,2.1,6.6,6.6c1.9,2.3,4,5,6.1,8.5
		c2.3,3.4,3.6,7.4,5,11.6c0.6,2.2,1.3,4.3,1.8,6.5s1,4.4,1.2,6.7c0.2,1.1,0.4,2.2,0.4,3.3c-6.1-5.8-14.6-10.6-20.3-13.5
		c-3.2-1.6-6.3-3.8-9.1-6.4c-1.4-1.3-2.7-2.8-4-4.4c-1.3-1.5-2.8-3.2-4.1-4.8c-2.6-3.4-5-7.1-6.8-11.1c-0.5-1-0.9-2-1.4-3.1
		c-0.6-1-1.1-2-1.6-3.1c-1-2.1-2-4.3-2.8-6.5c-1.1-2.8-1.7-5.6-2.8-8.2c-1.1-2.6-2.1-5.4-3-8s-1.4-5.2-2.3-7.6
		c-0.9-2.4-1.7-4.7-2.5-6.8c-1.5-4.3-2.3-8-3.4-10.5c-1-2.6-1.5-4-1.5-4c4.9,6.5,8.9,11.6,13.9,15.4c5.1,3.8,9.4,6.7,13.9,8.7
		C196.5,236.3,203.7,236.9,203.8,236.9L203.8,236.9z" fill="#ffffff"/>
	<path class="st0" d="M180.3,177.4c5-0.6,10.5,0.4,14.9,3.1c4.6,2.7,8.8,6.7,12.7,11.2c7,9.5,12.5,21.2,14.4,29.8
		c-0.7-1.1-1.4-2.3-2.2-3.3c-1.3-1.8-2.5-3.6-4-5.1c-1.5-1.7-3.1-2.9-4.6-4.3c-3.1-2.6-6.1-4.6-8.9-6c-2.8-1.5-5.3-2.4-7.4-3
		c-4.5-1.1-7.2-1.1-7.2-1.1s0.7,0.2,2,0.8s3.2,1.3,5.3,2.7c2.1,1.3,4.5,3,7,5.2c2.6,2.1,5.2,4.9,7.7,7.8c1.2,1.5,2.2,3.1,3.2,4.8
		s1.9,3.2,2.7,5c0.4,0.8,0.8,1.7,1.2,2.6c-6.5-2.9-14.5-4.3-19.9-4.9c-5.7-0.7-12.7-3.4-18.5-7.7c-5.6-4.4-12.1-9.8-17-16.7
		c-6.8-8.3-12.5-17.4-17.3-24.3c-2.2-3.5-4.1-6.5-5.6-8.5c-1.4-2.1-2.2-3.3-2.2-3.3c5.6,4.9,10.6,8.5,15.6,10.8
		c2.5,1.2,5,2.1,7.4,2.7c2.3,0.7,4.4,1.2,6.5,1.6C174.3,178.6,180.3,177.4,180.3,177.4z" fill="#ffffff"/>
	<path class="st0" d="M144,129c4.6-1.6,9.4-1.6,14.4-0.3c4.7,1.4,9.4,4.2,14,7.4c4.7,3.1,8.5,7.4,12,11.5s6.6,8,8.5,11.6
		c-0.9-0.8-1.9-1.7-2.8-2.5c-1.6-1.4-3.4-2.4-5.1-3.4c-1.7-1.1-3.5-1.9-5.2-2.8c-3.4-1.6-6.6-2.6-9.4-3.3c-2.8-0.7-5.5-0.8-7.7-0.9
		c-4.3-0.1-6.8,0.6-6.8,0.6s2.9,0.2,7.6,1.4c2.4,0.6,4.9,1.7,7.7,3.1c2.8,1.4,5.8,3.2,8.8,5.2c1.4,1.1,3,2.1,4.3,3.3
		c1.2,1.2,2.5,2.5,3.6,3.8c0.6,0.6,1.2,1.3,1.8,2c-6.6-0.8-13.9-0.2-19.2,0.8c-5.7,1-12.3,0-18.8-2.7c-3.1-1.4-6.7-2.9-10-4.9
		c-3.5-2-6.6-4.4-9.9-7.1c-4.3-3.2-8.2-6.8-11.8-10.3c-3.8-3.4-7.2-6.6-10.1-9.6c-2.8-3-5.4-5.4-7.1-7.1s-2.7-2.8-2.7-2.8
		c3,2,6,3.5,8.9,4.7c2.7,1.3,5.4,2.3,8,3c5.1,1.4,10,1.6,13.9,1.6c7.9-0.2,13.1-2.5,13.1-2.5L144,129z" fill="#ffffff"/>
	<path class="st0" d="M101.4,89.1c15-8.5,37.5,7.8,47.5,18.1c-1-0.5-2-1-2.9-1.4c-1.6-0.8-3.3-1.4-5-2.1s-3.3-1-4.9-1.5
		c-3.1-0.8-6.1-1.2-8.8-1.2s-4.9,0.2-6.8,0.5c-3.7,0.6-5.7,1.6-5.7,1.6s2.5-0.2,6.7,0.2c2.1,0.3,4.7,0.6,7.4,1.3
		c2.7,0.8,5.6,1.8,8.5,3c1.5,0.7,2.9,1.3,4.3,2.1c1.4,0.8,2.7,1.5,4.1,2.4c0.7,0.4,1.3,0.8,1.9,1.3c-5.8,0.6-12.2,2.8-16.4,4.4
		c-4.8,1.9-10.5,2-16.7,0.8c-6.5-1-13.1-3.8-20-7.6c-4.3-2.3-8.3-5-12.1-7.6c-3.9-2.5-7.4-5-10.4-7.3c-3-2.2-5.5-4.2-7.3-5.5
		c-1.7-1.4-2.8-2.2-2.8-2.2c11.8,5.5,21.3,6,28.5,4.6C97.2,91.8,101.4,89,101.4,89.1L101.4,89.1z" fill="#ffffff"/>
	<path class="st0" d="M104.2,70.4c-0.9-0.4-1.8-0.7-2.8-1c-1.5-0.5-3.1-0.9-4.7-1.3s-3-0.6-4.5-0.9c-2.9-0.4-5.6-0.5-8.1-0.3
		c-2.4,0.2-4.5,0.6-6.1,1c-3.3,0.8-5.1,1.7-5.1,1.7s2.3-0.4,6.1-0.4c1.9,0.1,4.2,0.1,6.8,0.5c2.5,0.4,5.2,1,7.9,1.9
		c1.3,0.5,2.7,0.8,4,1.5c1.3,0.6,2.6,1.1,3.9,1.7c0.6,0.3,1.2,0.6,1.9,0.9c-5.2,1.2-10.7,3.5-14.4,5.3c-8.2,3.9-20.9,2.6-34-3.1
		c-8.1-3.6-15.7-8-21.5-11.6c-5.8-3.4-9.5-6.1-9.5-6.1c10.9,4.3,19.8,3.9,26.1,2.4s9.8-4.1,9.8-4.1C73.3,50.5,94.4,62.7,104.2,70.4
		L104.2,70.4z" fill="#ffffff"/>
	<path class="st0" d="M262.2,294.1c-6,3.2-14.4,8.1-21.2,13.2c0.3-1.1,0.4-2.3,0.7-3.4c0.4-2.4,0.9-4.6,1.5-6.9
		c0.5-2.4,1.3-4.7,2.1-7.1c1.5-4.7,3.7-9.2,5-13.2c1.5-4.1,3.1-7.7,4.6-10.7c2.9-6.1,5.3-9.5,5.3-9.5s-2.7,2.1-6.4,6.5
		c-1.9,2.2-4,5-6.1,8.4c-2.3,3.3-4,7.3-6.5,11.7c-1.2,2.3-2.4,4.4-3.3,6.9c-1.1,2.4-2.1,4.8-2.9,7.4c-0.6,1.5-1,3-1.5,4.5
		c0-5.2,0.2-11.5,0.9-18.3c0.5-3.4,0.3-6.9,0.6-10.5c0.2-3.6,0.6-7.2,1.1-10.8c1.4-7.2,2-14.1,4.3-20.4c2.1-6.3,5.7-12.1,10.1-16.3
		c0,0,5.8-4.2,10.3-14.8c2.1-5.3,4.5-12.4,4.1-21c-0.2-8.6-1.2-19.3-6.3-30.8c0,0,1.3,2.1,3.6,5.8c2.4,3.6,4.9,9.3,7.9,16.1
		c1.5,3.4,3.1,7.1,4.6,11s2.6,8.3,3.9,12.7c1.2,4.4,2.3,9,3.4,13.6c1,4.6,1.3,9.5,1.8,14.3c0.3,3.9,0.5,7.7,0.6,11.3
		c0,1.9,0,3.6-0.1,5.4c-0.1,1.8-0.4,3.5-0.7,5.2c-1,6.8-2.6,12.9-4.5,18.3c-1,2.7-2,5.1-3.2,7.5c-1.3,2.3-2.7,4.3-4.2,6.1
		c-2.9,3.7-6.1,6.4-9.4,8.2L262.2,294.1z" fill="#ffffff"/>
	<path class="st0" d="M169.3,261.4c0.4,1,0.7,2,1.1,3c0.2,1,0.5,2,0.8,2.9c0.6,1.9,1.3,3.7,2.1,5.4c1.6,3.4,3.4,6.5,5.4,9.4
		c3.3,5.8,7.5,10.6,11.5,14.3c4,3.8,8.1,6.6,10.7,8.4c2.7,1.8,4.6,2.7,4.6,2.7c8.9,5,14.4,14.7,16.6,26.1c0.8,5.7,1,11.8,0.7,17.9
		c-0.2,3-0.3,6.1-0.8,9.2c-0.6,2.9-1.3,5.9-1.9,8.7l1,0.3c1.1-2.7,2.3-5.5,3.5-8.3s2.2-5.7,3.4-8.6c2.5-5.7,5.2-11.3,8.5-16.5
		c6-10.4,13.1-19.5,23.4-23.8c0,0,2-0.6,5.2-2.3c3.3-1.8,7.2-4.8,11.6-9.7c4.3-4.9,8.8-11.8,12.4-21.2c1.5-4.7,2.7-10.2,3.5-16.2
		c0.4-3.1,0.7-6.3,0.9-9.6c0.1-1.7,0.1-3.4,0.2-5.2c0-1.8-0.2-3.6-0.4-5.4c0,0,0.2,0.7,0.6,2.1c0.3,1.3,0.9,3.3,1.2,5.8
		c0.8,5,1.8,12.2,2.8,20.8c0.2,2.2,0.4,4.4,0.7,6.7c0.1,2.3,0.1,4.7,0,7.1c0,4.8-0.1,9.9-0.4,15.3c-0.1,10.6-2.5,21.3-4.9,31.9
		c-1.1,4.3-2,8.4-3.5,12.3c-1.5,3.7-3.2,7.3-4.9,10.8c-3.4,6.8-7.1,12.8-11,17.8c-8.4,9.6-17.5,15.4-25.8,17
		c-3.8,0.7-8.3,1.7-13.1,2.8c-2.4,0.6-4.8,1.3-7.2,2c-2.5,0.6-5,1.4-7.2,2.2c0.7-1.1,1.3-2.3,2.1-3.4c1.3-2.3,2.5-4.7,4-7
		c1.4-2.5,3-4.6,4.6-6.9c3.2-4.4,6.6-8.7,10.1-12.4c3.3-3.8,6.1-7.1,8.7-9.8c5.2-5.4,8.9-8.2,8.9-8.2s-3.6,1.2-9.1,4.6
		c-2.8,1.8-6,3.9-9.5,6.8c-3.3,2.8-7.5,6.2-11.4,10.1c-2,2.1-4,4-5.9,6.4l-0.6,0.7c1.1,0.4-20.6,53.3-21.9,52.6l-12.4,23.9
		c0,0-4.2,6.8-10.5,17.1c-3.2,5-6.7,11.1-10.9,17.4c-4.3,6.2-8.9,12.7-13.6,19.2c-8.9,13.3-19.2,25.6-26.7,35
		c-7.5,9.3-12.5,15.6-12.5,15.6l-6-5.1c0,0,6-7.5,15-18.7c4.4-5.6,9.8-12,15.2-19.2c5.2-7.3,10.7-15.1,16.2-23
		c2.7-4,5.7-7.8,8.1-11.8c2.5-4,4.9-7.9,7.2-11.8c4.7-7.7,9.3-14.7,12.7-21c6.6-12.7,11.1-21.2,11.1-21.2s1.6-3,3.9-7.5
		c2.1-4.6,4.7-10.9,7.4-17.1c2.6-6.3,5.5-12.3,7-17.2c1.5-4.8,2.6-8,2.6-8l-0.2-3c-0.1-2.9-0.7-5.6-1.1-8.2c-1-5.2-2.3-9.8-4.4-13.7
		c-1.9-3.9-3.9-6.9-5.8-9.4c-3.7-4.8-6.5-6.9-6.5-6.9s2.3,3.3,4.8,9.6c1.1,3.2,2.8,7,3.6,11.4s1.2,9.3,1.2,14.5
		c-0.1,2.6,0,5.2-0.3,7.8c-0.2,2.6-0.4,5.2-1,7.7c-0.3,1.2-0.6,2.5-0.9,3.6c-1.1-2-2.4-4.1-3.7-6.1c-1.4-2-3-4-4.6-5.9
		c-3.2-3.8-6.4-7-9-9.6c-6-5.7-10.2-14-12.7-23.4c-1.6-4.7-2.9-9.8-3.6-15c-0.4-2.6-0.6-5.3-0.6-8c-0.1-2.7-0.6-5.4-0.7-8.1
		c-0.4-6.8,0.5-13.5,0-19.6c0-3.1,0-6.1,0.1-8.9c0.1-1.4,0.2-2.8,0.2-4.1c0-1.3-0.1-2.6-0.2-3.8c-0.2-4.9,0-9,0.2-11.9
		c0.2-3-0.2-4.5-0.1-4.6L169.3,261.4z" fill="#ffffff"/>
	<path class="st0" d="M245.4,206.5c-3.9,4.3-9.6,10.8-13.5,16.8c-0.1-1-0.3-2-0.4-3c-0.3-2-0.5-4-0.6-6.2c-0.2-2.1-0.1-4.2-0.2-6.3
		c-0.3-4.1-0.4-8.2-0.1-11.9c0.1-3.8,0.6-7.1,0.9-10c0.4-2.8,0.8-5.1,1-6.6c0.3-1.5,0.5-2.3,0.5-2.3s-1.6,2.3-3.2,6.8
		c-0.9,2.3-2,5.1-2.9,8.5c-0.9,3.3-1.6,7.1-2,11.3c-0.1,2.1-0.4,4.2-0.3,6.4c-0.1,2.2-0.4,4.5-0.4,6.8c-0.1,1.4,0,2.7,0,4.1
		c-2.2-8.6-6.9-20.4-9-32.6c-1.5-5.9-2.2-11.9-2.1-17.7c0.4-5.8,1.1-10.9,3.9-15.6c0,0,3.8-4.9,5-14.5c0.3-2.4,0.5-5.2,0.3-8.1
		c-0.3-2.9-0.7-6.1-1.6-9.5c-1.8-6.9-4.9-14.9-10.9-23c0,0,1.4,1.4,3.9,3.8s5.8,6.1,9.5,10.8c1.9,2.3,3.8,4.9,5.8,7.6
		c2.1,2.7,4.1,5.6,6,8.9c3.7,6.4,7.9,13.2,10.8,20.5c4.6,11.9,7.3,23.1,6.7,32.9C252,194.2,249.9,201.6,245.4,206.5L245.4,206.5z" fill="#ffffff"/>
	<path class="st0" d="M209.9,139.5c-2.2,4.7-5.8,12.1-7.7,18.5c-0.4-0.8-0.7-1.7-1.1-2.5c-0.8-1.7-1.4-3.5-2-5.3
		c-0.8-1.8-1.4-3.6-2.1-5.4c-1.2-3.6-2.2-7.3-2.9-10.6c-0.8-3.4-1-6.6-1.5-9.1c-0.7-5.1-0.7-8.3-0.7-8.3s-0.9,2.5-1.4,6.9
		c-0.3,2.3-0.4,4.8-0.3,8.1c0,3.2,0.2,6.8,0.8,10.6c0.3,1.9,0.6,3.8,1.2,5.9c0.5,2,1,3.9,1.7,6c0.3,1.3,0.6,2.5,1,3.7
		c-2.2-3.5-5.2-7.5-8-12.1c-2.9-4.6-5.6-9.8-8.3-14.7c-2.6-5.1-4.6-10.4-5.7-15.5c-1.2-5.1-1.3-10.1,0.2-14.8c0,0,2.4-5.2,1.8-14.1
		c-0.3-4.4-1.6-9.6-4.3-15.4c-1.4-2.9-3-6-5.3-9.2c-2.2-3.1-4.9-6.2-8.2-9.4c0,0,1.5,1,4.1,2.8s6.2,4.3,10.2,7.8
		c4.1,3.5,8.7,7.5,13.4,12.2c4.5,4.8,9.2,10.2,13.4,15.6c3.3,4.6,6,9.4,8.2,13.9c2.2,4.6,3.9,8.9,4.7,13.2
		C212.9,126.9,212.5,134.3,209.9,139.5L209.9,139.5z" fill="#ffffff"/>
	<path class="st0" d="M160.6,86.1c-1.1,4.6-2.6,11.1-2.9,17c-0.5-0.6-1-1.3-1.5-1.9c-1.1-1.2-2-2.6-2.9-4c-1-1.4-1.8-2.8-2.7-4.3
		c-1.7-2.9-3.2-5.9-4.2-8.6c-1.2-2.7-2.2-5.1-2.9-7.3c-1.4-4.2-1.8-6.9-1.8-6.9s-0.4,2.3-0.2,6.1c0.2,1.9,0.4,4.3,1,6.9
		s1.4,5.6,2.6,8.9c0.7,1.6,1.2,3.2,2,4.9c0.8,1.6,1.5,3.3,2.5,4.8c0.5,0.9,1.1,1.9,1.7,2.9c-10.5-9.9-30.6-28.2-28.1-45.2
		c0,0,1.4-4.9-0.3-12.4c-1.8-7.2-6.4-17.5-18.9-26.7c0,0,1.4,0.7,3.7,1.8c2.4,1.3,5.7,2.9,9.5,5.4c3.8,2.4,8.2,5.3,12.7,8.5
		c4.5,3.3,9,7.2,13.3,11.3c6.9,6.5,11.8,14,14.8,20.6c2.9,6.8,3.7,13.2,2.4,18.2L160.6,86.1z" fill="#ffffff"/>
	<path class="st0" d="M110.5,50.1c-0.2,4.2-0.2,10.3,0.5,15.5c-0.5-0.5-1.1-1-1.6-1.5c-1.1-1-2.1-2-3.1-3c-1.1-1.1-2-2.2-2.9-3.4
		c-1.9-2.3-3.6-4.7-5-6.9c-1.5-2.1-2.6-4.2-3.6-6c-1.9-3.5-2.6-5.8-2.6-5.8s0,2,0.9,5.4c0.5,1.7,1,3.8,2,6c0.9,2.2,2.2,4.8,3.6,7.4
		c0.8,1.3,1.5,2.7,2.5,4c0.9,1.3,1.9,2.6,2.9,3.9c0.6,0.8,1.2,1.5,1.9,2.2c-10.5-7-30.5-20.3-30.7-35.7c0,0,0.4-4.6-2.1-10.9
		c-2.6-6.2-8-14.4-19.6-21.3c0,0,4.9,1.6,12.1,4.8c7,3.2,16.2,7.9,24.4,13.9C103.5,28.4,111.1,40.8,110.5,50.1L110.5,50.1z" fill="#ffffff" />
	<path class="st0" d="M44.5,33.3c0,0,7.4,4.4,14.6,9.1c3.6,2.2,7.2,4.7,9.8,6.5c2.7,1.8,4.4,3,4.4,3c-8-1.2-22.7-4.2-37.4-11.2
		c-10.7-5.2-19.5-12-25.8-17.4S0,13.8,0,13.8s5.5-0.8,14-0.2s19.9,2.9,31,8.4c15.4,7.5,25.9,19.3,30.7,25.7c0,0-1.9-0.9-4.9-2.4
		c-2.9-1.4-6.7-3.4-10.7-5.1c-7.8-3.6-15.8-6.9-15.8-6.9H44.5z" fill="#ffffff"/>
</g>
</svg>
