<svg width="73" height="73" viewBox="0 0 73 73" fill="none" xmlns="http://www.w3.org/2000/svg">
<path d="M36.5 73C56.6584 73 73 56.6584 73 36.5C73 16.3416 56.6584 0 36.5 0C16.3416 0 0 16.3416 0 36.5C0 56.6584 16.3416 73 36.5 73Z" fill="#4D76A1"/>
<path fill-rule="evenodd" clip-rule="evenodd" d="M35.1213 52.5086H37.9861C37.9861 52.5086 38.8515 52.4136 39.2933 51.9373C39.6999 51.5001 39.6869 50.679 39.6869 50.679C39.6869 50.679 39.631 46.8349 41.415 46.2689C43.1737 45.7113 45.4321 49.9841 47.8259 51.627C49.636 52.8703 51.0114 52.5977 51.0114 52.5977L57.4119 52.5086C57.4119 52.5086 60.7601 52.3023 59.1725 49.6698C59.0424 49.4544 58.2479 47.7224 54.4137 44.1634C50.4005 40.4384 50.9379 41.0409 55.7722 34.5976C58.7164 30.6735 59.8934 28.2778 59.5258 27.2518C59.1751 26.2745 57.0098 26.5328 57.0098 26.5328L49.8032 26.5777C49.8032 26.5777 49.269 26.5048 48.8728 26.7417C48.4856 26.9739 48.2364 27.5153 48.2364 27.5153C48.2364 27.5153 47.0958 30.5518 45.5746 33.1343C42.3656 38.5834 41.0826 38.871 40.5581 38.5327C39.3382 37.7441 39.6427 35.3647 39.6427 33.6743C39.6427 28.3937 40.4436 26.1919 38.0831 25.6219C37.2997 25.4326 36.7232 25.3076 34.7199 25.2875C32.1485 25.2608 29.9721 25.2953 28.7398 25.8991C27.92 26.3005 27.2875 27.1952 27.6727 27.2466C28.149 27.3103 29.2278 27.5374 29.7997 28.3162C30.5382 29.3208 30.5122 31.5773 30.5122 31.5773C30.5122 31.5773 30.9364 37.7935 29.5212 38.5659C28.5498 39.0955 27.2173 38.0141 24.3564 33.0705C22.8905 30.5382 21.7837 27.7391 21.7837 27.7391C21.7837 27.7391 21.5703 27.216 21.1897 26.9362C20.7277 26.5972 20.0823 26.4892 20.0823 26.4892L13.2342 26.5341C13.2342 26.5341 12.2062 26.5627 11.8288 27.0097C11.4931 27.4073 11.8021 28.2297 11.8021 28.2297C11.8021 28.2297 17.1635 40.7729 23.234 47.0939C28.8003 52.8892 35.1213 52.5086 35.1213 52.5086Z" fill="white"/>
</svg>
