<svg width="75" height="75" viewBox="0 0 75 75" fill="none" xmlns="http://www.w3.org/2000/svg">
<g clip-path="url(#clip0)">
<path d="M73.4547 19.4961C72.5901 16.2832 70.057 13.7506 66.8447 12.8855C60.9756 11.2793 37.4993 11.2793 37.4993 11.2793C37.4993 11.2793 14.0235 11.2793 8.15445 12.8242C5.00391 13.6888 2.40897 16.2838 1.54437 19.4961C0 25.3646 0 37.5354 0 37.5354C0 37.5354 0 49.7673 1.54437 55.5746C2.40954 58.7869 4.94211 61.3201 8.15503 62.1853C14.0853 63.7914 37.4998 63.7914 37.4998 63.7914C37.4998 63.7914 60.9756 63.7914 66.8447 62.2465C70.0576 61.3819 72.5901 58.8487 73.4553 55.6364C74.9997 49.7673 74.9997 37.5972 74.9997 37.5972C74.9997 37.5972 75.0615 25.3646 73.4547 19.4961Z" fill="#FF0000"/>
<path d="M30.0247 48.7791L49.5466 37.5353L30.0247 26.2915V48.7791Z" fill="white"/>
</g>
<defs>
<clipPath id="clip0">
<rect width="75" height="75" fill="white"/>
</clipPath>
</defs>
</svg>
