<svg width="209" height="34" viewBox="0 0 209 34" fill="none" xmlns="http://www.w3.org/2000/svg">
<path fill-rule="evenodd" clip-rule="evenodd" d="M43.1374 30.8777C40.6165 30.8777 38.6605 27.967 38.4154 24.5522C38.3918 24.2261 37.9564 24.3094 37.9703 24.5936C37.945 28.7759 40.4428 32.1847 43.4928 32.1847C50.5305 32.1847 51.021 17.378 43.4949 17.0022C43.3298 16.9941 43.3317 17.2396 43.5043 17.2465C48.709 17.7818 49.0362 30.8777 43.1374 30.8777Z" fill="#CC0A21"/>
<path fill-rule="evenodd" clip-rule="evenodd" d="M30.582 33.182C36.8182 33.182 38.0911 22.5467 34.2296 18.4745C33.4369 17.6386 31.0273 16.6609 29.5003 17.5496C30.4952 16.9656 32.3879 17.9992 33.1944 19.0831C36.0033 22.8605 35.3525 31.9331 30.1058 31.8557C28.0113 31.8253 25.4844 29.0291 25.4844 29.0291C26.5325 31.5858 28.3782 33.182 30.582 33.182Z" fill="#CC0A21"/>
<path fill-rule="evenodd" clip-rule="evenodd" d="M32.3405 24.6638C32.3405 23.4355 31.7361 22.1791 30.8492 21.7767C30.8492 21.7767 31.6281 22.8398 31.6281 24.6545C31.6281 25.4683 31.4513 26.0596 31.2031 26.4713C30.5368 27.5755 29.0215 27.1711 29.0215 27.1711C30.2906 28.2353 32.3405 27.3511 32.3405 24.6638Z" fill="#CC0A21"/>
<path fill-rule="evenodd" clip-rule="evenodd" d="M43.056 21.2259C43.082 21.5709 43.3832 21.4119 43.3774 21.2471C43.2296 19.2609 42.9197 17.5883 42.2781 15.7094L42.1655 15.4209C40.1526 11.0159 33.0278 11.8609 29.2122 11.9479C28.9013 11.955 28.9223 12.2328 29.2354 12.2446C31.042 12.313 36.0604 11.8598 39.2277 13.5413C41.1418 14.5578 41.7313 16.0682 42.3782 18.0412C42.6949 19.0072 42.974 20.1282 43.056 21.2259Z" fill="#CC0A21"/>
<path fill-rule="evenodd" clip-rule="evenodd" d="M32.6298 11.3757C32.5899 9.38524 32.6195 6.21947 33.059 3.92544C33.1911 3.23815 33.2413 2.99482 32.6114 3.64872C32.2238 4.05077 31.8351 4.67491 31.6541 5.19547C31.5638 5.45436 31.73 5.58866 31.931 5.36244C32.0621 5.2149 32.3713 4.72202 32.3037 5.14083C32.0224 6.88964 32.2062 9.49513 32.3332 11.3733C32.3475 11.585 32.6355 11.6603 32.6298 11.3757Z" fill="#CC0A21"/>
<path fill-rule="evenodd" clip-rule="evenodd" d="M31.142 11.5064C30.9179 9.58514 30.2628 6.32113 29.8715 4.94996C29.8127 4.74377 29.6274 4.82829 29.6564 4.9802C30.0795 7.16494 30.3434 9.44902 30.6498 11.5185C30.7054 11.8945 31.174 11.7829 31.142 11.5064Z" fill="#CC0A21"/>
<path fill-rule="evenodd" clip-rule="evenodd" d="M29.6476 4.62782C30.0561 4.73747 30.1986 4.30093 29.8153 4.0832C27.4375 2.7345 18.164 3.40029 12.5759 4.14441C12.3669 4.17185 24.3132 3.19217 29.6476 4.62782Z" fill="#CC0A21"/>
<path fill-rule="evenodd" clip-rule="evenodd" d="M11.1438 30.0003L10.7149 31.9612C11.4663 32.3934 12.0669 32.8287 13.1711 32.8817L13.9993 31.4061C16.6809 31.7071 16.3754 31.2792 17.1114 33.7524L19.6075 33.4183C19.7964 30.9434 19.6084 31.5056 21.9988 30.6508C22.5655 31.048 22.7966 31.4385 23.6637 31.9342L25.5092 30.5087L24.8079 28.6403C25.3009 28.1309 25.9552 27.2301 26.3832 26.8416L28.1481 27.2108C28.6356 26.5169 29.0478 25.8865 29.1934 24.8889L27.6364 23.8436L27.9986 21.392L29.9937 20.8315L29.6543 18.3191L27.7253 18.1407L26.8598 15.7823L28.276 14.4062L26.8513 12.3423L24.8822 13.1399C24.258 12.3976 23.9475 12.2207 23.1163 11.6303L23.4548 9.59872L21.3794 8.67682C20.6738 9.27388 20.4892 9.72099 20.0163 10.2213C19.3055 10.12 18.8258 10.0809 18.4882 10.0331C17.9373 9.95413 17.9247 10.0816 18.1362 10.8233C18.329 11.4968 18.7251 12.5829 19.0678 12.7223C19.17 12.7631 18.9652 12.6815 19.0678 12.7223C20.5578 13.3125 22.0902 13.8577 23.2086 14.9549C26.3783 18.0641 26.2757 23.3471 23.3414 26.5747C20.4757 29.7254 15.4651 30.5591 11.9366 27.4889C10.6463 26.3662 9.77487 25.1798 9.2595 23.8303C8.78411 22.5851 8.70776 21.738 8.78653 20.2422C8.80513 19.884 8.10553 19.5091 7.08239 18.4231C6.3852 17.6839 6.57306 17.7332 6.41988 18.8499C6.35814 19.305 6.29472 19.76 6.23298 20.2148C4.57874 20.7506 4.11943 20.3245 4.33676 22.177C4.52631 23.7893 4.96884 23.3241 6.52232 23.542C6.78629 24.2921 7.05207 25.042 7.31676 25.7923C6.81504 26.4129 6.43764 26.5228 6.08415 27.4522C6.51218 28.0747 6.9396 28.6964 7.36859 29.3182C7.99716 29.0502 8.62585 28.7831 9.25358 28.5163C9.85618 28.8462 10.5413 29.4586 11.1438 30.0003Z" fill="#CC0A21"/>
<path d="M64.0037 17.2605L63.3036 19.2712L62.5129 21.4924L61.9845 23.2062L61.3415 23.1631L60.6412 23.12L59.9746 23.1631L59.2744 23.2062L67.452 3.30119C67.8139 3.35862 68.1712 3.38728 68.5238 3.38728C68.8714 3.38728 69.2333 3.35862 69.6145 3.30119L77.5967 23.2062L76.3393 23.1631L75.101 23.12L73.8723 23.1775L72.6769 23.2303C72.3196 22.0909 72.0575 21.2578 71.8813 20.7217C71.5719 19.7977 71.3527 19.1323 71.2098 18.7301C71.0336 18.2276 70.8478 17.7394 70.6527 17.2605H64.0037ZM69.9857 15.5372L67.4474 8.80639L64.7421 15.5372H69.9857ZM84.7027 23.2062L83.6455 23.1631L82.5881 23.12L81.5022 23.1775L80.4163 23.2303V3.55971H91.342L91.1848 4.78989L91.342 6.02519C90.8182 5.96278 90.2846 5.9006 89.7322 5.83843C89.1845 5.77625 88.689 5.74262 88.251 5.74262C87.8795 5.74262 87.2793 5.72356 86.4554 5.68519C85.6315 5.64694 85.0457 5.62763 84.7027 5.62763V23.2062ZM98.9909 23.2062L97.9052 23.1631L96.8478 23.12C96.6523 23.12 96.4619 23.12 96.2761 23.12C96.0524 23.1488 95.8857 23.1679 95.7762 23.1775L94.7045 23.2303V3.55971H101.739C103.73 3.55971 105.244 3.96649 106.288 4.78055C107.331 5.59424 107.85 6.8005 107.85 8.40919C107.85 10.0272 107.488 11.2959 106.769 12.2149C106.045 13.1341 105.025 13.7708 103.706 14.1202C102.387 14.4696 100.815 14.6469 98.9909 14.6469V23.2062ZM98.9909 13.0383C99.41 13.0383 99.7625 13.0238 100.043 12.9904C100.329 12.9571 100.605 12.909 100.877 12.8421C101.744 12.6073 102.382 12.1336 102.796 11.4251C103.211 10.7117 103.42 9.88358 103.42 8.92623C103.42 7.79622 103.168 6.88199 102.658 6.18317C102.153 5.48896 101.52 5.13961 100.768 5.13961H98.9909V13.0383ZM119.714 23.6372C117.594 23.6372 115.742 23.2396 114.156 22.4403C112.57 21.6409 111.336 20.4679 110.46 18.9266C109.579 17.3851 109.141 15.5324 109.141 13.3733C109.141 11.9564 109.388 10.616 109.888 9.36654C110.383 8.11219 111.127 7.00657 112.117 6.04886C113.108 5.09152 114.298 4.3496 115.684 3.82782C117.07 3.30604 118.642 3.04266 120.4 3.04266C122.324 3.04266 123.981 3.35388 125.372 3.9762C126.763 4.59853 127.858 5.40287 128.658 6.39361C129.458 7.38471 130.044 8.47598 130.416 9.6729C130.787 10.8697 130.973 12.0665 130.973 13.2633C130.973 14.6563 130.711 15.9824 130.192 17.2462C129.673 18.5054 128.92 19.6157 127.944 20.5684C126.967 21.5211 125.781 22.268 124.381 22.8184C122.981 23.3642 121.428 23.6372 119.714 23.6372ZM113.884 14.216C113.884 15.5324 114.089 16.7771 114.503 17.9452C114.918 19.1132 115.575 20.066 116.47 20.8079C117.37 21.5451 118.495 21.9139 119.857 21.9139C121.238 21.9139 122.414 21.4924 123.376 20.6499C124.338 19.8121 125.058 18.6872 125.524 17.2798C125.996 15.8722 126.229 14.35 126.229 12.7176C126.229 11.7458 126.115 10.7932 125.886 9.86925C125.658 8.9453 125.301 8.09312 124.805 7.31282C124.315 6.53252 123.681 5.91019 122.905 5.45532C122.124 4.99596 121.228 4.7661 120.204 4.7661C118.885 4.7661 117.742 5.11083 116.785 5.80503C115.865 6.46548 115.151 7.50929 114.646 8.93098C114.137 10.3527 113.884 12.1144 113.884 14.216ZM149.719 19.9271L149.095 22.4069C147.495 23.2253 145.609 23.6372 143.442 23.6372C141.927 23.6372 140.508 23.4073 139.189 22.9525C137.869 22.4931 136.726 21.837 135.764 20.9849C134.802 20.1377 134.05 19.1084 133.502 17.8974C132.959 16.6861 132.688 15.3697 132.688 13.9478C132.688 12.1383 132.983 10.5347 133.569 9.14639C134.155 7.7581 134.964 6.61399 136.007 5.71384C137.05 4.8092 138.255 4.13892 139.622 3.70336C140.989 3.26294 142.475 3.04266 144.075 3.04266C145.052 3.04266 146.066 3.16251 147.123 3.40658C148.176 3.65053 149.1 4.00024 149.89 4.45961L149.543 5.98208C149.448 6.47034 149.4 6.72887 149.391 6.76712C149.352 6.96347 149.3 7.1739 149.238 7.39903H148.848C148.286 6.59469 147.585 5.96277 146.738 5.49369C146.29 5.2495 145.857 5.06772 145.433 4.94787C145.009 4.82826 144.566 4.7661 144.099 4.7661C142.966 4.7661 141.97 5.01502 141.113 5.50802C140.26 6.00588 139.56 6.68091 139.017 7.53297C138.469 8.38989 138.074 9.33315 137.822 10.3623C137.693 10.9031 137.593 11.4251 137.531 11.9326C137.465 12.435 137.431 12.9761 137.431 13.5553C137.431 15.1831 137.698 16.6334 138.227 17.9117C138.755 19.1851 139.532 20.1713 140.556 20.8701C141.579 21.5642 142.808 21.9139 144.237 21.9139C145.104 21.9139 146.004 21.7128 146.947 21.3106C147.885 20.9132 148.686 20.3914 149.343 19.7594L149.719 19.9271ZM153.463 3.55971L154.296 3.64119L155.006 3.70797L155.606 3.72241L156.206 3.70797L156.93 3.64119L157.749 3.55496V11.3436C158.54 11.3436 159.292 11.358 160.007 11.3915C160.716 11.4251 161.421 11.4585 162.121 11.4873C162.745 11.4489 163.479 11.4155 164.322 11.3868C165.165 11.358 165.889 11.3436 166.493 11.3436V3.55971L167.318 3.64119L168.018 3.70797L168.618 3.72241L169.246 3.69363L169.97 3.64119L170.78 3.55496V23.2062L169.718 23.1631L168.618 23.12L167.57 23.1775L166.493 23.2303V13.6414C165.731 13.6414 165.008 13.6271 164.322 13.6031C163.636 13.5794 162.903 13.5553 162.121 13.5266C161.859 13.5266 161.245 13.5456 160.278 13.584C159.311 13.6224 158.468 13.6414 157.749 13.6414V23.2062L156.663 23.1631L155.606 23.12C155.458 23.12 155.311 23.12 155.163 23.12C154.901 23.1488 154.691 23.1679 154.534 23.1775L153.463 23.2303V3.55971ZM178.353 17.2605L177.653 19.2712L176.862 21.4924L176.333 23.2062L175.69 23.1631L174.99 23.12L174.323 23.1631L173.623 23.2062L181.801 3.30119C182.163 3.35862 182.52 3.38728 182.873 3.38728C183.22 3.38728 183.582 3.35862 183.963 3.30119L191.946 23.2062L190.688 23.1631L189.45 23.12L188.221 23.1775L187.026 23.2303C186.668 22.0909 186.406 21.2578 186.23 20.7217C185.921 19.7977 185.702 19.1323 185.559 18.7301C185.382 18.2276 185.197 17.7394 185.002 17.2605H178.353ZM184.335 15.5372L181.796 8.80639L179.091 15.5372H184.335ZM199.052 5.62763V12.0331H202.081C203.405 12.0331 204.534 12.2102 205.467 12.5642C206.405 12.9187 207.115 13.4595 207.605 14.1823C208.096 14.9101 208.339 15.81 208.339 16.8824C208.339 21.0424 205.829 23.12 200.804 23.12H194.765V3.55971H207.401C207.358 3.75606 207.32 3.96187 207.296 4.17729C207.267 4.3927 207.253 4.59379 207.253 4.78989C207.253 5.15394 207.305 5.56559 207.405 6.02519C205.462 5.76194 202.676 5.62763 199.052 5.62763ZM199.052 21.5117C199.566 21.5117 199.99 21.4973 200.328 21.4686C200.671 21.4398 200.966 21.3919 201.214 21.3152C202.1 21.0617 202.771 20.578 203.224 19.8649C203.681 19.1468 203.91 18.3281 203.91 17.3994C203.91 16.2984 203.633 15.3888 203.081 14.6804C202.524 13.9669 201.866 13.6128 201.104 13.6128H199.052V21.5117Z" fill="#03A34B"/>
<path d="M64.5759 32.0948L64.3622 32.9443C63.8139 33.2247 63.1678 33.3658 62.4254 33.3658C61.9063 33.3658 61.4202 33.2871 60.9681 33.1312C60.516 32.9737 60.1246 32.7491 59.7949 32.4572C59.4651 32.1668 59.2074 31.8143 59.0198 31.3993C58.8338 30.9844 58.7407 30.5333 58.7407 30.0461C58.7407 29.4261 58.842 28.8767 59.0425 28.4012C59.2433 27.9256 59.5207 27.5335 59.8781 27.225C60.2354 26.9152 60.6483 26.6854 61.1166 26.5363C61.5849 26.3854 62.0939 26.3099 62.6424 26.3099C62.9769 26.3099 63.3245 26.3508 63.6867 26.4347C64.0474 26.5182 64.3639 26.6378 64.6346 26.7953L64.5157 27.3169C64.4829 27.4843 64.4667 27.5728 64.4635 27.5861C64.4503 27.6531 64.4323 27.7253 64.4111 27.8025H64.2774C64.0848 27.5269 63.845 27.3103 63.5545 27.1496C63.4011 27.0661 63.2526 27.0037 63.1074 26.9628C62.962 26.9217 62.8103 26.9004 62.6505 26.9004C62.2621 26.9004 61.921 26.9856 61.6273 27.1546C61.3352 27.3251 61.0953 27.5563 60.9092 27.8483C60.7216 28.142 60.5862 28.465 60.4998 28.8177C60.4557 29.003 60.4213 29.1818 60.4003 29.3558C60.3773 29.5278 60.3661 29.7131 60.3661 29.9117C60.3661 30.4694 60.4574 30.9663 60.6385 31.4041C60.8196 31.8404 61.0858 32.1784 61.4363 32.4178C61.7873 32.6556 62.2082 32.7754 62.6978 32.7754C62.9949 32.7754 63.3032 32.7065 63.6263 32.5688C63.9478 32.4326 64.222 32.2537 64.447 32.0374L64.5759 32.0948ZM69.5006 26.4871C69.4698 26.7134 69.4534 26.8545 69.4534 26.9086C69.4534 26.9628 69.4698 27.1037 69.5006 27.3317C68.825 27.2416 68.0679 27.1957 67.2293 27.1957V29.3213H68.2572C68.5477 29.3213 68.9492 29.2901 69.4632 29.2292C69.4307 29.4212 69.4142 29.5592 69.4142 29.6427C69.4142 29.723 69.4307 29.8658 69.4632 30.0707C69.0732 30.0166 68.6716 29.9905 68.2572 29.9905H67.2293V32.4802C68.0679 32.4802 68.825 32.4343 69.5006 32.3425C69.4698 32.5705 69.4534 32.7114 69.4534 32.7656L69.5006 33.1888H65.7605V26.4871H69.5006ZM70.7538 26.4871H73.283C73.8428 26.4871 74.3078 26.6035 74.6766 26.8347C75.0439 27.0678 75.2283 27.4499 75.2283 27.9811C75.2283 28.2698 75.1547 28.5257 75.0078 28.7503C74.8609 28.9735 74.6651 29.1522 74.4189 29.2851C74.1708 29.4181 73.9063 29.505 73.6224 29.5476V29.6329C74.0906 29.682 74.5004 29.8297 74.8546 30.0757C75.2086 30.3217 75.3847 30.7155 75.3847 31.2566C75.3847 31.6896 75.2723 32.0489 75.0485 32.3359C74.8235 32.6229 74.5281 32.836 74.1642 32.977C73.7988 33.1181 73.4153 33.1888 73.0139 33.1888H70.7538V26.4871ZM72.2127 29.3802H72.5259C72.8899 29.3802 73.1656 29.2982 73.3549 29.1342C73.6371 28.9013 73.7792 28.5585 73.7792 28.1109C73.7792 27.7614 73.6862 27.4926 73.5018 27.3073C73.3175 27.1217 73.0578 27.0282 72.7233 27.0282C72.5913 27.0282 72.4214 27.0381 72.2127 27.0578V29.3802ZM72.2127 32.6179H72.7103C72.8915 32.6179 73.0726 32.5655 73.2521 32.4621C73.4332 32.3571 73.58 32.2078 73.6944 32.0142C73.81 31.8208 73.8673 31.5928 73.8673 31.3304C73.8673 30.4037 73.4006 29.9413 72.4656 29.9413C72.415 29.9413 72.3693 29.9413 72.3267 29.9413C72.286 29.9413 72.2485 29.9413 72.2127 29.9413V32.6179ZM80.3814 26.4871C80.3505 26.7134 80.3341 26.8545 80.3341 26.9086C80.3341 26.9628 80.3505 27.1037 80.3814 27.3317C79.7058 27.2416 78.9487 27.1957 78.1101 27.1957V29.3213H79.138C79.4285 29.3213 79.8299 29.2901 80.344 29.2292C80.3113 29.4212 80.295 29.5592 80.295 29.6427C80.295 29.723 80.3113 29.8658 80.344 30.0707C79.9539 30.0166 79.5524 29.9905 79.138 29.9905H78.1101V32.4802C78.9487 32.4802 79.7058 32.4343 80.3814 32.3425C80.3505 32.5705 80.3341 32.7114 80.3341 32.7656L80.3814 33.1888H76.6413V26.4871H80.3814ZM83.1032 33.2182L82.731 33.2036L82.3688 33.1888C82.3018 33.1888 82.2367 33.1888 82.173 33.1888C82.0964 33.1986 82.0393 33.2052 82.0018 33.2084L81.6344 33.2264V26.4871H84.0447C84.7269 26.4871 85.2458 26.6265 85.603 26.9053C85.9605 27.1841 86.1382 27.5974 86.1382 28.1485C86.1382 28.7028 86.0144 29.1374 85.7679 29.4524C85.5198 29.7673 85.1705 29.9856 84.7187 30.1052C84.2665 30.2251 83.7282 30.2855 83.1032 30.2855V33.2182ZM83.1032 29.7345C83.2469 29.7345 83.3674 29.7296 83.4637 29.7181C83.5617 29.7068 83.6563 29.6903 83.7493 29.6672C84.0464 29.587 84.2649 29.4245 84.4069 29.1818C84.5488 28.9376 84.6207 28.6535 84.6207 28.3256C84.6207 27.9385 84.5343 27.6253 84.3595 27.3858C84.1867 27.1481 83.9696 27.0282 83.7119 27.0282H83.1032V29.7345ZM90.2031 33.3658C89.4769 33.3658 88.842 33.2297 88.2988 32.9559C87.7554 32.6821 87.3328 32.2801 87.0324 31.7519C86.7307 31.2238 86.5805 30.589 86.5805 29.8495C86.5805 29.3639 86.6653 28.9045 86.8366 28.4765C87.0065 28.0468 87.261 27.6679 87.6002 27.3399C87.9397 27.0119 88.3478 26.7577 88.8226 26.5789C89.2975 26.3999 89.8361 26.3099 90.438 26.3099C91.0972 26.3099 91.6651 26.4165 92.1416 26.6298C92.6181 26.8429 92.9935 27.1184 93.2676 27.458C93.5418 27.7975 93.7424 28.1716 93.8696 28.5815C93.9971 28.9915 94.0606 29.4017 94.0606 29.8116C94.0606 30.2888 93.9709 30.7432 93.793 31.1762C93.6152 31.6077 93.3574 31.9881 93.0229 32.3145C92.6884 32.6408 92.2818 32.8967 91.8021 33.0853C91.3226 33.2723 90.7906 33.3658 90.2031 33.3658ZM88.2059 30.1381C88.2059 30.589 88.2758 31.0154 88.4179 31.4157C88.5598 31.816 88.7851 32.1423 89.0918 32.3967C89.4003 32.649 89.7854 32.7754 90.252 32.7754C90.7252 32.7754 91.1284 32.6312 91.458 32.3425C91.7876 32.0555 92.0341 31.6701 92.1938 31.1878C92.3554 30.7056 92.4353 30.184 92.4353 29.6246C92.4353 29.2916 92.3962 28.9654 92.318 28.6488C92.2394 28.3321 92.1172 28.0402 91.9473 27.7729C91.7794 27.5054 91.5624 27.2924 91.2964 27.1365C91.0288 26.979 90.722 26.9004 90.371 26.9004C89.9192 26.9004 89.5275 27.0185 89.1995 27.2564C88.8847 27.4826 88.6399 27.8401 88.4668 28.3273C88.2922 28.8144 88.2059 29.4181 88.2059 30.1381ZM94.8046 30.4824H97.2523V31.5353H94.8046V30.4824ZM99.6022 29.2916L99.9662 29.3213C100.807 29.3213 101.227 28.8686 101.227 27.9615C101.227 27.6418 101.153 27.3579 101.002 27.107C100.854 26.8577 100.611 26.7329 100.276 26.7329C99.9123 26.7329 99.6478 26.8429 99.4832 27.0611C99.3166 27.2809 99.196 27.5794 99.1192 27.9599L98.9578 27.9698C98.5105 27.563 98.2496 27.3317 98.1727 27.2742C98.3521 27.0152 98.5512 26.8118 98.7734 26.6659C98.9952 26.5215 99.24 26.4197 99.5076 26.3623C99.6413 26.3329 99.7833 26.3099 99.9302 26.2953C100.079 26.2788 100.242 26.2705 100.416 26.2705C100.911 26.2705 101.34 26.3412 101.706 26.4822C102.071 26.6233 102.344 26.8168 102.523 27.0661C102.704 27.3136 102.794 27.5989 102.794 27.9239C102.794 28.7882 102.314 29.3425 101.355 29.5853C101.733 29.6655 102.038 29.7527 102.268 29.8478C102.5 29.9413 102.698 30.1018 102.861 30.3284C103.026 30.553 103.107 30.8598 103.107 31.2466C103.107 31.5618 103.035 31.8487 102.89 32.1094C102.745 32.3702 102.548 32.5899 102.296 32.7673C102.047 32.9443 101.743 33.0837 101.386 33.1854C101.028 33.2854 100.656 33.3363 100.268 33.3363C99.9709 33.3363 99.6853 33.3052 99.4113 33.2462C99.2611 33.2132 99.124 33.1771 99.0002 33.1346C98.876 33.0936 98.7488 33.0411 98.6183 32.977C98.3817 32.8624 98.1678 32.7131 97.9769 32.5311C98.2985 32.1849 98.5431 31.893 98.7096 31.6536L98.8663 31.6634C98.9186 32.0063 99.0556 32.2932 99.2775 32.5278C99.4914 32.7524 99.7865 32.8641 100.163 32.8641C100.444 32.8641 100.689 32.7901 100.898 32.6408C101.107 32.4918 101.268 32.303 101.381 32.075C101.494 31.8487 101.55 31.6192 101.55 31.388C101.55 30.4299 101.104 29.9509 100.211 29.9509C100.079 29.9509 99.8763 29.9674 99.6022 30.0002V29.2916ZM105.025 31.1812L104.785 31.8699L104.514 32.6312L104.333 33.2182L104.113 33.2036L103.873 33.1888L103.644 33.2036L103.404 33.2182L106.206 26.3984C106.33 26.4182 106.453 26.428 106.573 26.428C106.692 26.428 106.817 26.4182 106.947 26.3984L109.682 33.2182L109.251 33.2036L108.827 33.1888L108.406 33.2084L107.996 33.2264C107.874 32.836 107.784 32.5507 107.724 32.3669C107.618 32.0505 107.543 31.8223 107.494 31.6846C107.433 31.5125 107.37 31.3451 107.303 31.1812H105.025ZM107.074 30.5907L106.205 28.2846L105.278 30.5907H107.074ZM110.648 26.4871L112.268 26.4967H113.618C113.977 26.4967 114.331 26.4967 114.675 26.4967C115.021 26.4967 115.352 26.4967 115.666 26.4967C115.979 26.4967 116.284 26.4967 116.581 26.4967V33.2182L116.217 33.2036L115.84 33.1888L115.481 33.2084L115.112 33.2264V27.225C114.943 27.225 114.693 27.2201 114.362 27.2105C114.029 27.2005 113.781 27.1957 113.614 27.1957C113.442 27.1957 113.19 27.2005 112.859 27.2105C112.526 27.2201 112.28 27.225 112.117 27.225V33.2182L111.744 33.2036L111.382 33.1888C111.332 33.1888 111.281 33.1888 111.23 33.1888C111.141 33.1986 111.069 33.2052 111.015 33.2084L110.648 33.2264V26.4871ZM119.175 31.1812L118.936 31.8699L118.665 32.6312L118.484 33.2182L118.263 33.2036L118.023 33.1888L117.795 33.2036L117.555 33.2182L120.357 26.3984C120.481 26.4182 120.603 26.428 120.724 26.428C120.843 26.428 120.967 26.4182 121.098 26.3984L123.833 33.2182L123.402 33.2036L122.978 33.1888L122.557 33.2084L122.147 33.2264C122.025 32.836 121.935 32.5507 121.875 32.3669C121.768 32.0505 121.693 31.8223 121.645 31.6846C121.584 31.5125 121.52 31.3451 121.454 31.1812H119.175ZM121.225 30.5907L120.355 28.2846L119.429 30.5907H121.225ZM124.43 32.4802L125.104 30.8893L125.693 29.4657C125.918 28.9178 126.129 28.383 126.323 27.8647C126.509 27.3925 126.682 26.9265 126.845 26.4641C126.883 26.4641 126.922 26.4641 126.964 26.4641C127.008 26.4756 127.044 26.4822 127.068 26.4871C127.094 26.4921 127.127 26.4967 127.166 26.5001C127.207 26.5034 127.236 26.505 127.256 26.505C127.294 26.505 127.331 26.505 127.371 26.505C127.411 26.4951 127.444 26.4888 127.465 26.4854C127.542 26.4723 127.612 26.4641 127.675 26.4641C128.32 28.2436 129.095 30.2495 129.999 32.4802H130.468L130.41 33.0018C130.41 33.1642 130.43 33.3413 130.468 33.5331H130.319C130.205 33.3889 130.002 33.297 129.71 33.2528C129.418 33.2101 129.089 33.1888 128.718 33.1888H125.827C125.393 33.1888 125.037 33.2084 124.758 33.2462C124.479 33.2839 124.276 33.3806 124.153 33.5331H124.004C124.02 33.4626 124.033 33.3839 124.043 33.2937C124.053 33.2052 124.058 33.1068 124.058 33.0018C124.058 32.9443 124.053 32.8689 124.043 32.7771C124.033 32.6836 124.02 32.5853 124.004 32.4802H124.43ZM128.346 32.4802C128.157 31.8963 127.945 31.2925 127.71 30.6679L126.845 28.3338C126.114 30.1348 125.587 31.5157 125.262 32.4753L125.931 32.4998L126.739 32.5196L127.613 32.4998L128.346 32.4802Z" fill="#03A34B"/>
<path fill-rule="evenodd" clip-rule="evenodd" d="M0.172862 1.84697C0.0487906 0.675916 0.305146 0.712348 1.48449 0.94622C3.56651 1.35932 5.38034 2.81355 5.81574 4.89168C6.09831 6.23905 6.20522 6.40626 5.00341 6.3906C2.85204 6.36242 0.393339 3.93287 0.172862 1.84697Z" fill="#03A34B"/>
<path fill-rule="evenodd" clip-rule="evenodd" d="M7.16997 2.21367C7.67133 1.14935 7.87127 1.31462 8.75644 2.13207C10.3192 3.57525 11.1133 5.76656 10.4072 7.76819C9.94967 9.06614 9.95426 9.26479 8.93681 8.62195C7.11524 7.4708 6.27659 4.10941 7.16997 2.21367Z" fill="#03A34B"/>
<path fill-rule="evenodd" clip-rule="evenodd" d="M1.62146 8.91397C0.906269 7.98115 1.14366 7.87746 2.27044 7.45671C4.25993 6.71405 6.56268 6.99965 8.01529 8.54191C8.95736 9.54164 9.13543 9.62785 8.10312 10.2464C6.25486 11.3536 2.89491 10.5758 1.62146 8.91397Z" fill="#03A34B"/>
<path fill-rule="evenodd" clip-rule="evenodd" d="M11.7975 6.73581C12.447 5.75563 12.6209 5.94835 13.379 6.8859C14.7173 8.54145 15.1874 10.8252 14.2004 12.7029C13.5607 13.9206 13.5367 14.1178 12.6224 13.3336C10.986 11.9295 10.6405 8.48146 11.7975 6.73581Z" fill="#03A34B"/>
<path fill-rule="evenodd" clip-rule="evenodd" d="M5.34227 12.5579C4.76915 11.5307 5.01898 11.4627 6.19446 11.2104C8.26996 10.7651 10.5072 11.3829 11.7223 13.1203C12.5105 14.2466 12.6743 14.3579 11.5637 14.8196C9.57542 15.6461 6.36298 14.3875 5.34227 12.5579Z" fill="#03A34B"/>
<path fill-rule="evenodd" clip-rule="evenodd" d="M15.4593 11.7626C16.1698 10.8263 16.3311 11.0298 17.0279 12.0142C18.258 13.7526 18.5814 16.0618 17.4767 17.8722C16.7608 19.0461 16.7242 19.2415 15.8618 18.4C14.3183 16.8934 14.1932 13.4302 15.4593 11.7626Z" fill="#03A34B"/>
<path fill-rule="evenodd" clip-rule="evenodd" d="M8.64593 17.1569C8.13937 16.095 8.39307 16.0432 9.58232 15.8671C11.6819 15.5565 13.8752 16.317 14.9771 18.1291C15.6916 19.3039 15.8481 19.4255 14.7104 19.8148C12.6735 20.5115 9.54789 19.0485 8.64593 17.1569Z" fill="#03A34B"/>
<path fill-rule="evenodd" clip-rule="evenodd" d="M19.1987 17.2645C20.0256 16.4303 20.1589 16.6534 20.7206 17.7216C21.7123 19.6075 21.7305 21.9395 20.3982 23.5879C19.5346 24.657 19.4728 24.8457 18.7282 23.8975C17.3955 22.1996 17.7252 18.7501 19.1987 17.2645Z" fill="#03A34B"/>
<path fill-rule="evenodd" clip-rule="evenodd" d="M11.738 21.7103C11.375 20.5906 11.6333 20.5727 12.8352 20.5556C14.9572 20.5255 17.0318 21.5697 17.8866 23.5118C18.4412 24.771 18.5803 24.9121 17.4016 25.1476C15.2912 25.5686 12.3844 23.7048 11.738 21.7103Z" fill="#03A34B"/>
</svg>
