<svg width="26" height="38" viewBox="0 0 26 38" fill="none" xmlns="http://www.w3.org/2000/svg">
<path d="M13.0002 0C6.01591 0 0.333496 5.68241 0.333496 12.6667C0.333496 14.7634 0.857703 16.8422 1.85424 18.6861L12.3075 37.5918C12.4467 37.8438 12.7118 38 13.0002 38C13.2885 38 13.5537 37.8438 13.6929 37.5918L24.15 18.6799C25.1427 16.8422 25.6669 14.7633 25.6669 12.6666C25.6669 5.68241 19.9845 0 13.0002 0ZM13.0002 19C9.50805 19 6.66688 16.1588 6.66688 12.6667C6.66688 9.17455 9.50805 6.33338 13.0002 6.33338C16.4923 6.33338 19.3335 9.17455 19.3335 12.6667C19.3335 16.1588 16.4923 19 13.0002 19Z" fill="#007B37"/>
</svg>
