<svg width="62" height="62" viewBox="0 0 62 62" fill="none" xmlns="http://www.w3.org/2000/svg">
<path d="M61.0312 20.863C61.0312 18.4402 59.0598 16.4688 56.637 16.4688C55.4638 16.4688 54.3595 16.926 53.5302 17.7562L50.6588 20.6276L47.4688 23.8177V14.4537C50.7499 13.981 53.2812 11.159 53.2812 7.75C53.2812 4.01063 50.2394 0.96875 46.5 0.96875H7.75C4.01063 0.96875 0.96875 4.01063 0.96875 7.75V56.1875C0.96875 56.7223 1.40275 57.1562 1.9375 57.1562H6.78125V60.0625C6.78125 60.5973 7.21525 61.0312 7.75 61.0312H46.5C47.0348 61.0312 47.4688 60.5973 47.4688 60.0625V36.2448L56.8724 26.8412L57.8673 25.8463C57.3655 28.3456 56.142 30.6435 54.2994 32.487L49.6911 37.0954L51.0609 38.4652L55.6692 33.8568C58.4185 31.1075 59.9559 27.4767 60.046 23.6026C60.6728 22.8257 61.0312 21.8763 61.0312 20.863ZM54.9 19.126C55.3641 18.662 55.9812 18.4062 56.637 18.4062C57.9913 18.4062 59.0938 19.5087 59.0938 20.863C59.0938 21.5188 58.838 22.1359 58.374 22.6L56.1875 24.7864L52.7136 21.3125L54.9 19.126ZM51.3438 22.6823L52.3958 23.7344L40.2031 35.9271L39.1511 34.875L51.3438 22.6823ZM28.304 48.2467L30.2967 44.2603L33.2397 47.2033L29.2533 49.196L28.304 48.2467ZM31.4011 42.625L37.7812 36.2448L41.2552 39.7188L34.875 46.0989L31.4011 42.625ZM46.5 2.90625C49.1708 2.90625 51.3438 5.07916 51.3438 7.75C51.3438 10.4208 49.1708 12.5938 46.5 12.5938H12.4872C13.7466 11.3615 14.5312 9.64681 14.5312 7.75C14.5312 5.85319 13.7466 4.1385 12.4872 2.90625H46.5ZM8.71875 12.4959V9.6875C8.71875 9.15372 9.15372 8.71875 9.6875 8.71875H12.4959C12.1094 10.6136 10.6136 12.1094 8.71875 12.4959ZM2.90625 55.2188V7.75C2.90625 5.07916 5.07916 2.90625 7.75 2.90625C10.0886 2.90625 12.0454 4.57347 12.4959 6.78125H9.6875C8.08519 6.78125 6.78125 8.08519 6.78125 9.6875V55.2188H2.90625ZM45.5312 59.0938H8.71875V14.5312H45.5312V25.7552L41.2552 30.0312H12.5938V31.9688H39.3177L37.3802 33.9062H12.5938V35.8438H35.4427L29.3463 41.9401C29.2708 42.0157 29.2214 42.1057 29.1758 42.1968L29.1652 42.191L26.2589 48.0035C26.0729 48.3765 26.1456 48.8269 26.4411 49.1214L26.7239 49.4062L24.5026 51.6276L25.8724 52.9974L28.0938 50.7761L28.3776 51.0599C28.5636 51.2459 28.8116 51.3438 29.0625 51.3438C29.2088 51.3438 29.358 51.3098 29.4955 51.242L35.308 48.3358L35.3022 48.3251C35.3933 48.2796 35.4834 48.2302 35.5589 48.1546L43.3089 40.4046L45.5312 38.1823V59.0938ZM42.625 38.3489L41.5729 37.2969L53.7656 25.1042L54.8177 26.1562L42.625 38.3489Z" fill="#03A34B"/>
<path d="M12.5938 18.4062H41.6562V20.3438H12.5938V18.4062Z" fill="#03A34B"/>
<path d="M12.5938 22.2812H41.6562V24.2188H12.5938V22.2812Z" fill="#03A34B"/>
<path d="M12.5938 26.1562H41.6562V28.0938H12.5938V26.1562Z" fill="#03A34B"/>
<path d="M12.5938 49.4062H23.25V51.3438H12.5938V49.4062Z" fill="#03A34B"/>
<path d="M12.5938 53.2812H41.6562V55.2188H12.5938V53.2812Z" fill="#03A34B"/>
</svg>
