<svg width="61" height="61" viewBox="0 0 61 61" fill="none" xmlns="http://www.w3.org/2000/svg">
<g clip-path="url(#clip0)">
<path d="M24.2293 58.1635L23.2961 58.7736L8.74267 49.3075C5.73936 47.3477 3.851 44.0733 3.65939 40.4922L2.03263 8.16863C2.02022 7.89461 2.12149 7.62804 2.31212 7.43146C2.50522 7.22793 2.77378 7.11375 3.05426 7.11624H10.4965C13.7356 7.11921 16.9102 6.20929 19.6563 4.4912L23.2961 2.21613L26.9348 4.4912C29.6814 6.20929 32.856 7.11872 36.0956 7.11624H43.5379C43.8168 7.11475 44.0839 7.22942 44.276 7.43245C44.4652 7.62754 44.5669 7.89164 44.5565 8.16317L43.8968 21.2943C43.8819 21.5644 43.9747 21.8295 44.1559 22.0305C44.3366 22.2316 44.5903 22.3527 44.8603 22.3661C45.1309 22.3835 45.3964 22.2906 45.5975 22.1089C45.798 21.9273 45.9172 21.6721 45.9271 21.4011L46.5868 8.26395C46.6226 7.43295 46.3173 6.6233 45.7414 6.02263C45.1656 5.42197 44.3699 5.08243 43.5379 5.08292H36.0956C33.2378 5.0859 30.4365 4.2832 28.0135 2.76814L23.8347 0.154021C23.505 -0.0519913 23.0871 -0.0519913 22.7574 0.154021L18.5776 2.76814C16.1551 4.28369 13.3544 5.0859 10.4965 5.08292H3.05426C2.22227 5.08193 1.42552 5.42148 0.849678 6.02263C0.273838 6.6233 -0.0314573 7.43344 0.00428446 8.26494L1.63104 40.5949C1.8574 44.8274 4.08928 48.6984 7.63964 51.0147L22.747 60.8352C23.0841 61.0542 23.5185 61.0542 23.855 60.8352L25.3428 59.8687C25.658 59.6756 25.8437 59.3261 25.8273 58.9568C25.8109 58.5875 25.5954 58.2559 25.2643 58.0916C24.9332 57.9268 24.5391 57.9546 24.2343 58.1645L24.2293 58.1635Z" fill="#03A34B"/>
<path d="M38.7482 22.406C39.0178 22.4219 39.2829 22.3291 39.4834 22.1479C39.684 21.9667 39.8031 21.7121 39.8145 21.442L40.2772 12.2514C40.2911 11.9729 40.1903 11.7009 39.9982 11.4988C39.8061 11.2968 39.5395 11.1826 39.2605 11.1831H36.0944C32.0938 11.1816 28.1731 10.0587 24.7781 7.94201L23.8324 7.35127C23.5033 7.14625 23.0863 7.14625 22.7572 7.35127L21.8115 7.94201C18.4166 10.0587 14.4959 11.1816 10.4953 11.1831H7.32319C7.0442 11.1826 6.77763 11.2968 6.58552 11.4988C6.39291 11.7009 6.29214 11.9729 6.30653 12.2514L7.71982 40.2919C7.84293 42.5704 9.04525 44.6529 10.9555 45.8999L22.7388 53.5566C23.0754 53.7755 23.5098 53.7755 23.8468 53.5566L25.1614 52.7022C25.6324 52.3964 25.7665 51.7665 25.4602 51.2954C25.1544 50.8243 24.5245 50.6903 24.0534 50.9965L23.2948 51.4905L12.0669 44.1962C10.7013 43.3046 9.8415 41.8158 9.75215 40.1871L8.39247 13.2164H10.4953C14.8766 13.2159 19.1706 11.9863 22.8883 9.66705L23.2948 9.41288L23.7014 9.66705C27.419 11.9863 31.713 13.2159 36.0944 13.2164H38.1972L37.7901 21.3383C37.7613 21.8972 38.1893 22.3743 38.7482 22.406Z" fill="#03A34B"/>
<path d="M53.795 6.09998H59.895C60.4564 6.09998 60.9116 5.64477 60.9116 5.08332C60.9116 4.52187 60.4564 4.06665 59.895 4.06665H53.795C53.2335 4.06665 52.7783 4.52187 52.7783 5.08332C52.7783 5.64477 53.2335 6.09998 53.795 6.09998Z" fill="#03A34B"/>
<path d="M48.7115 6.09998H50.7448C51.3063 6.09998 51.7615 5.64477 51.7615 5.08332C51.7615 4.52187 51.3063 4.06665 50.7448 4.06665H48.7115C48.15 4.06665 47.6948 4.52187 47.6948 5.08332C47.6948 5.64477 48.15 6.09998 48.7115 6.09998Z" fill="#03A34B"/>
<path d="M59.895 8.1333H53.795C53.2335 8.1333 52.7783 8.58852 52.7783 9.14997C52.7783 9.71142 53.2335 10.1666 53.795 10.1666H59.895C60.4564 10.1666 60.9116 9.71142 60.9116 9.14997C60.9116 8.58852 60.4564 8.1333 59.895 8.1333Z" fill="#03A34B"/>
<path d="M48.7115 10.1666H50.7448C51.3063 10.1666 51.7615 9.71142 51.7615 9.14997C51.7615 8.58852 51.3063 8.1333 50.7448 8.1333H48.7115C48.15 8.1333 47.6948 8.58852 47.6948 9.14997C47.6948 9.71142 48.15 10.1666 48.7115 10.1666Z" fill="#03A34B"/>
<path d="M59.895 12.2H53.795C53.2335 12.2 52.7783 12.6552 52.7783 13.2166C52.7783 13.7781 53.2335 14.2333 53.795 14.2333H59.895C60.4564 14.2333 60.9116 13.7781 60.9116 13.2166C60.9116 12.6552 60.4564 12.2 59.895 12.2Z" fill="#03A34B"/>
<path d="M48.7115 14.2333H50.7448C51.3063 14.2333 51.7615 13.7781 51.7615 13.2166C51.7615 12.6552 51.3063 12.2 50.7448 12.2H48.7115C48.15 12.2 47.6948 12.6552 47.6948 13.2166C47.6948 13.7781 48.15 14.2333 48.7115 14.2333Z" fill="#03A34B"/>
<path d="M59.8949 38.633H55.9003L58.7249 35.8089C59.1215 35.4118 59.1215 34.7684 58.7249 34.3713L52.9734 28.6188C52.5703 28.2376 51.9394 28.2376 51.5358 28.6188L48.7117 31.4444V27.4498C48.7117 26.8883 48.2565 26.4331 47.695 26.4331H39.5618C39.0003 26.4331 38.5451 26.8883 38.5451 27.4498V31.4444L35.721 28.6188C35.3174 28.2376 34.6865 28.2376 34.2834 28.6188L28.5319 34.3713C28.1353 34.7684 28.1353 35.4118 28.5319 35.8089L31.3565 38.633H27.3619C26.8004 38.633 26.3452 39.0882 26.3452 39.6496V47.7829C26.3452 48.3444 26.8004 48.7996 27.3619 48.7996H31.3565L28.5319 51.6237C28.1353 52.0208 28.1353 52.6642 28.5319 53.0613L34.2834 58.8137C34.6865 59.195 35.3174 59.195 35.721 58.8137L38.5451 55.9881V59.9828C38.5451 60.5442 39.0003 60.9995 39.5618 60.9995H47.695C48.2565 60.9995 48.7117 60.5442 48.7117 59.9828V55.9881L51.5358 58.8137C51.9394 59.195 52.5703 59.195 52.9734 58.8137L58.7249 53.0613C59.1215 52.6642 59.1215 52.0208 58.7249 51.6237L55.9003 48.7996H59.8949C60.4563 48.7996 60.9116 48.3444 60.9116 47.7829V39.6496C60.9116 39.0882 60.4563 38.633 59.8949 38.633ZM58.8782 46.7663H53.4465C53.035 46.7663 52.6646 47.014 52.5073 47.3937C52.3499 47.7735 52.4368 48.2108 52.7277 48.5017L56.5684 52.3425L52.2546 56.6573L48.4138 52.8156C48.1229 52.5247 47.6861 52.4378 47.3058 52.5952C46.9261 52.7525 46.6784 53.1228 46.6784 53.5344V58.9661H40.5784V53.5344C40.5784 53.1228 40.3307 52.7525 39.9509 52.5952C39.5712 52.4378 39.1338 52.5247 38.843 52.8156L35.0022 56.6573L30.6883 52.3425L34.5291 48.5017C34.82 48.2108 34.9069 47.7735 34.7495 47.3937C34.5922 47.014 34.2218 46.7663 33.8103 46.7663H28.3785V40.6663H33.8103C34.2218 40.6663 34.5922 40.4186 34.7495 40.0388C34.9069 39.6591 34.82 39.2217 34.5291 38.9308L30.6883 35.0901L35.0022 30.7752L38.843 34.617C39.1338 34.9079 39.5712 34.9948 39.9509 34.8374C40.3307 34.68 40.5784 34.3097 40.5784 33.8982V28.4664H46.6784V33.8982C46.6784 34.3097 46.9261 34.68 47.3058 34.8374C47.6861 34.9948 48.1229 34.9079 48.4138 34.617L52.2546 30.7752L56.5684 35.0901L52.7277 38.9308C52.4368 39.2217 52.3499 39.6591 52.5073 40.0388C52.6646 40.4186 53.035 40.6663 53.4465 40.6663H58.8782V46.7663Z" fill="#03A34B"/>
<path d="M43.6283 36.5996C39.6977 36.5996 36.5117 39.7856 36.5117 43.7162C36.5117 47.6468 39.6977 50.8328 43.6283 50.8328C47.5589 50.8328 50.7449 47.6468 50.7449 43.7162C50.7404 39.7876 47.5569 36.6041 43.6283 36.5996ZM43.6283 48.7995C40.8211 48.7995 38.545 46.5234 38.545 43.7162C38.545 40.909 40.8211 38.6329 43.6283 38.6329C46.4355 38.6329 48.7116 40.909 48.7116 43.7162C48.7081 46.5224 46.4345 48.796 43.6283 48.7995Z" fill="#03A34B"/>
</g>
<defs>
<clipPath id="clip0">
<rect width="61" height="61" fill="white"/>
</clipPath>
</defs>
</svg>
