<svg width="60" height="60" viewBox="0 0 60 60" fill="none" xmlns="http://www.w3.org/2000/svg">
<g clip-path="url(#clip0)">
<path d="M43.4515 54.5351L42.2044 55.2561L39.1091 49.8903C38.8595 49.4579 38.329 49.2765 37.8668 49.4652C36.2463 50.1248 34.5487 50.5782 32.815 50.8137C32.3201 50.8815 31.9511 51.3042 31.9511 51.8034V58.0029H27.9572V51.8034C27.9572 51.3042 27.5881 50.8815 27.0933 50.8137C25.3606 50.5777 23.664 50.1243 22.0444 49.4652C21.5822 49.2765 21.0518 49.4579 20.8021 49.8903L17.7068 55.2561L14.2502 53.2592L17.3455 47.8885C17.5946 47.4565 17.4874 46.9076 17.0939 46.6014C15.7137 45.5283 14.4725 44.2871 13.3994 42.9069C13.0932 42.5139 12.5443 42.4062 12.1123 42.6553L6.74163 45.7507L4.74469 42.294L10.1105 39.1987C10.5429 38.9491 10.7243 38.4186 10.5356 37.9564C9.87599 36.3364 9.4221 34.6397 9.18613 32.9065C9.11836 32.4117 8.69567 32.0426 8.19644 32.0426H1.99694V28.0488H8.19644C8.69567 28.0488 9.11836 27.6802 9.18613 27.1853C9.4221 25.4521 9.87551 23.7555 10.5347 22.1359C10.7233 21.6737 10.542 21.1433 10.1095 20.8937L4.74371 17.7983L6.74066 14.3417L12.1113 17.4371C12.5433 17.6862 13.0923 17.5789 13.3984 17.1855C14.4715 15.8053 15.7128 14.564 17.093 13.491C17.4859 13.1848 17.5937 12.6358 17.3445 12.2039L14.2492 6.83318L17.7058 4.83624L20.8012 10.2021C21.0508 10.6345 21.5812 10.8159 22.0434 10.6277C23.6635 9.96755 25.3601 9.51414 27.0933 9.27768C27.5881 9.20992 27.9572 8.78722 27.9572 8.28799V2.0885H31.9511V8.28799C31.9511 8.78722 32.3201 9.20992 32.815 9.27768C34.5477 9.51365 36.2443 9.96706 37.8639 10.6267C38.3261 10.8149 38.8565 10.6335 39.1061 10.2011L42.2015 4.83527L45.6581 6.83221L42.5628 12.2029C42.3136 12.6348 42.4209 13.1838 42.8143 13.49C44.1945 14.563 45.4358 15.8043 46.5089 17.1845C46.815 17.578 47.364 17.6852 47.796 17.4361L53.1667 14.3407L55.1636 17.7974L49.7978 20.8927C49.3653 21.1423 49.184 21.6728 49.3727 22.135C50.0323 23.755 50.4862 25.4517 50.7222 27.1853C50.7899 27.6802 51.2126 28.0488 51.7118 28.0488H57.9113V32.0426H51.7118C51.2126 32.0426 50.7899 32.4117 50.7222 32.9065C50.4862 34.6392 50.0328 36.3359 49.3736 37.9555C49.185 38.4176 49.3663 38.9481 49.7988 39.1977L55.1646 42.2931L54.4474 43.5329C54.1719 44.0111 54.3358 44.6215 54.8135 44.8975C55.2913 45.1734 55.9022 45.0096 56.1782 44.5313L57.3931 42.4266C57.669 41.9493 57.5052 41.3385 57.0279 41.063L51.5363 37.8926C51.9912 36.6411 52.3364 35.3515 52.5665 34.0396H58.9098C59.4612 34.0396 59.9083 33.5925 59.9083 33.0411V27.0503C59.9083 26.4989 59.4612 26.0518 58.9098 26.0518H52.5665C52.3364 24.7394 51.9917 23.4493 51.5363 22.1969L57.0279 19.0264C57.5052 18.751 57.669 18.1401 57.3931 17.6628L54.3977 12.4706C54.1222 11.9933 53.5113 11.8294 53.034 12.1054L47.5371 15.2822C46.681 14.2622 45.7376 13.3189 44.7177 12.4627L47.8905 6.96628C48.1665 6.48899 48.0041 5.87859 47.5273 5.60216L42.3351 2.60675C41.8578 2.3308 41.2469 2.49461 40.9715 2.9724L37.801 8.46399C36.5495 8.00863 35.26 7.66394 33.948 7.43334V1.09002C33.948 0.538622 33.501 0.0915527 32.9496 0.0915527H26.9587C26.4073 0.0915527 25.9603 0.538622 25.9603 1.09002V7.43334C24.6478 7.66346 23.3578 8.00863 22.1053 8.46399L18.9349 2.9724C18.6594 2.49607 18.05 2.33226 17.5732 2.60675L12.3809 5.60216C11.9037 5.8781 11.7398 6.4885 12.0158 6.96628L15.1887 12.4627C14.1687 13.3189 13.2254 14.2622 12.3692 15.2822L6.87424 12.1093C6.39694 11.8333 5.78606 11.9972 5.51061 12.4745L2.51519 17.6667C2.23925 18.144 2.40306 18.7549 2.88036 19.0308L8.37195 22.2008C7.91708 23.4518 7.57239 24.7403 7.34179 26.0518H0.998471C0.447069 26.0518 0 26.4989 0 27.0503V33.0411C0 33.5925 0.447069 34.0396 0.998471 34.0396H7.34179C7.5719 35.352 7.91659 36.642 8.37195 37.8945L2.88036 41.065C2.40403 41.3404 2.24071 41.9498 2.51519 42.4266L5.51061 47.6189C5.78606 48.0962 6.39694 48.26 6.87424 47.9841L12.3712 44.8112C13.2273 45.8311 14.1707 46.7745 15.1906 47.6306L12.0177 53.1275C11.7418 53.6048 11.9056 54.2157 12.3829 54.4912L17.5751 57.4866C17.8048 57.6173 18.0763 57.6528 18.3318 57.5865C18.5882 57.5183 18.8067 57.3506 18.9388 57.1214L22.1092 51.6298C23.3602 52.0842 24.6488 52.4284 25.9603 52.658V59.0014C25.9603 59.5528 26.4073 59.9998 26.9587 59.9998H32.9496C33.501 59.9998 33.948 59.5528 33.948 59.0014V52.658C35.2605 52.4279 36.5505 52.0832 37.803 51.6279L40.9734 57.1195C41.106 57.3486 41.3244 57.5163 41.5804 57.5846C41.8359 57.6509 42.1074 57.6148 42.337 57.4846L44.45 56.2658C44.9278 55.9899 45.0916 55.379 44.8157 54.9012C44.5402 54.4234 43.9293 54.2596 43.4515 54.5351Z" fill="#03A34B"/>
<path d="M59.1224 53.569L40.1865 34.6331C42.0518 30.3682 41.0261 25.3909 37.627 22.2107C34.2274 19.031 29.1926 18.3392 25.0617 20.4844C24.7804 20.6321 24.5859 20.9046 24.5381 21.2186C24.4899 21.5326 24.5942 21.8505 24.8189 22.0752L32.2504 29.5067L29.4149 32.3422L21.9834 24.9107C21.7587 24.686 21.4408 24.5816 21.1268 24.6299C20.8129 24.6777 20.5403 24.8722 20.3926 25.1535C18.2445 29.2849 18.9349 34.3216 22.1151 37.7226C25.2957 41.1237 30.2754 42.1495 34.5414 40.2822L53.4772 59.2141C54.6468 60.3837 56.5428 60.3837 57.7124 59.2141L59.1224 57.8032C60.2925 56.6336 60.2925 54.7366 59.1224 53.567V53.569ZM57.7115 56.3928L56.3 57.8032C55.9051 58.1811 55.2835 58.1811 54.8891 57.8032L35.4526 38.3662C35.1444 38.0576 34.6715 37.9849 34.2844 38.1863C31.034 39.8814 27.0796 39.4319 24.2924 37.0503C21.5052 34.6692 20.4438 30.8333 21.611 27.3581L28.709 34.4562C29.099 34.8462 29.7309 34.8462 30.1209 34.4562L34.3644 30.2127C34.7544 29.8226 34.7544 29.1908 34.3644 28.8007L27.2664 21.7027C30.7415 20.5361 34.5774 21.5969 36.9586 24.3842C39.3402 27.1714 39.7897 31.1258 38.0945 34.3762C37.8932 34.7633 37.9658 35.2362 38.2744 35.5443L57.7115 54.9809C58.1015 55.3709 58.1015 56.0028 57.7115 56.3928Z" fill="#03A34B"/>
<path d="M33.1362 13.3712C32.5945 13.2684 32.0714 13.6238 31.9685 14.1659C31.8652 14.7076 32.2211 15.2302 32.7627 15.3336C33.7212 15.5144 34.6592 15.7899 35.5636 16.1551C35.6821 16.2038 35.8088 16.2282 35.9371 16.2282C36.4144 16.2277 36.8249 15.8889 36.916 15.4199C37.0072 14.9509 36.7532 14.4833 36.3105 14.3039C35.2857 13.8895 34.2224 13.577 33.1362 13.3712Z" fill="#03A34B"/>
<path d="M12.98 30.0458C12.9902 39.4162 20.5841 47.0096 29.954 47.0198C30.5054 47.0198 30.9525 46.5727 30.9525 46.0213C30.9525 45.4699 30.5054 45.0229 29.954 45.0229C21.6825 45.0229 14.9769 38.3173 14.9769 30.0458C14.9769 21.7743 21.6825 15.0687 29.954 15.0687C30.5054 15.0687 30.9525 14.6217 30.9525 14.0702C30.9525 13.5188 30.5054 13.0718 29.954 13.0718C20.5841 13.0825 12.9902 20.6759 12.98 30.0458Z" fill="#03A34B"/>
</g>
<defs>
<clipPath id="clip0">
<rect width="60" height="60" fill="white"/>
</clipPath>
</defs>
</svg>
