<svg width="62" height="62" viewBox="0 0 62 62" fill="none" xmlns="http://www.w3.org/2000/svg">
<path d="M60.9667 59.9331H1.03329C0.462578 59.9331 0 60.3957 0 60.9664C0 61.5371 0.462578 61.9998 1.03329 61.9998H60.9666C61.5373 61.9998 61.9999 61.5372 61.9999 60.9665C61.9999 60.3958 61.5374 59.9331 60.9667 59.9331Z" fill="#03A34B"/>
<path d="M60.9669 51.6667H49.6002C49.0295 51.6667 48.5669 52.1293 48.5669 52.7C48.5669 53.2708 49.0295 53.7333 49.6002 53.7333H60.9669C61.5376 53.7333 62.0002 53.2708 62.0002 52.7C62.0002 52.1293 61.5376 51.6667 60.9669 51.6667Z" fill="#03A34B"/>
<path d="M60.9669 55.8H49.6002C49.0295 55.8 48.5669 56.2626 48.5669 56.8333C48.5669 57.4041 49.0295 57.8666 49.6002 57.8666H60.9669C61.5376 57.8666 62.0002 57.4041 62.0002 56.8333C62.0002 56.2626 61.5376 55.8 60.9669 55.8Z" fill="#03A34B"/>
<path d="M45.4667 51.6667H1.03329C0.462578 51.6667 0 52.1293 0 52.7C0 53.2708 0.462578 53.7333 1.03329 53.7333H45.4666C46.0373 53.7333 46.4999 53.2708 46.4999 52.7C46.4999 52.1293 46.0374 51.6667 45.4667 51.6667Z" fill="#03A34B"/>
<path d="M1.03329 57.8666H12.4C12.9707 57.8666 13.4333 57.4041 13.4333 56.8333C13.4333 56.2626 12.9707 55.8 12.4 55.8H1.03329C0.462578 55.7999 0 56.2626 0 56.8332C0 57.4038 0.462578 57.8666 1.03329 57.8666Z" fill="#03A34B"/>
<path d="M45.4667 55.8H16.5333C15.9626 55.8 15.5 56.2626 15.5 56.8333C15.5 57.4041 15.9626 57.8666 16.5333 57.8666H45.4666C46.0373 57.8666 46.4999 57.4041 46.4999 56.8333C46.4999 56.2626 46.0374 55.8 45.4667 55.8Z" fill="#03A34B"/>
<path d="M61.4988 44.5811L56.5306 41.5999L54.7667 38.9566V34.0999C55.2117 34.1001 55.6067 33.8152 55.7473 33.3931L58.6117 24.7999H59.9333C60.504 24.7999 60.9666 24.3374 60.9666 23.7666C60.9666 23.1959 60.504 22.7333 59.9333 22.7333H47.5333V18.5999C47.5333 18.0292 47.0707 17.5666 46.5 17.5666H39.2667C39.2667 15.2839 37.4162 13.4333 35.1334 13.4333C32.8507 13.4333 31 15.2838 31 17.5666H23.7667C23.196 17.5666 22.7334 18.0293 22.7334 18.5999V22.7332H15.5C14.9293 22.7332 14.4667 23.1958 14.4667 23.7665V25.8332H1.03329C0.462578 25.8332 0 26.2958 0 26.8665V34.0999C0 34.6707 0.462578 35.1332 1.03329 35.1332C1.60401 35.1332 2.06659 34.6707 2.06659 34.0999V27.8999H14.4666V29.9666H5.16659C4.59587 29.9666 4.13329 30.4292 4.13329 30.9999C4.13329 31.5707 4.59587 32.0332 5.16659 32.0332H14.4666V36.1665C14.4666 36.4406 14.5756 36.7033 14.7693 36.8971L18.3168 40.4445C17.065 42.7466 17.4021 45.588 19.1579 47.5332H1.03329C0.462578 47.5332 0 47.9959 0 48.5665C0 49.1371 0.462578 49.5998 1.03329 49.5998H60.9666C61.5373 49.5998 61.9999 49.1372 61.9999 48.5665V45.4665C61.9999 45.104 61.8098 44.7678 61.4988 44.5811ZM48.5667 24.7999H56.4334L54.0216 32.0332H48.5667V24.7999ZM35.1333 15.4999C36.2747 15.4999 37.2 16.4252 37.2 17.5666H33.0667C33.0667 16.4252 33.992 15.4999 35.1333 15.4999ZM24.8 19.6332H45.4667V22.7332H24.8V19.6332ZM16.5333 35.7388V29.9666H38.2333C38.804 29.9666 39.2666 29.5041 39.2666 28.9333C39.2666 28.3626 38.804 27.9001 38.2333 27.9001H16.5333V24.8001H46.5V27.9001H42.3667C41.796 27.9001 41.3334 28.3626 41.3334 28.9333C41.3334 29.5041 41.796 29.9666 42.3667 29.9666H46.5V33.0666C46.5 33.6374 46.9627 34.0999 47.5333 34.0999H52.7V38.2332H46.8203C44.7481 36.8554 42.0517 36.8554 39.9796 38.2332H36.1666C35.5959 38.2332 35.1333 38.6958 35.1333 39.2665C35.1333 39.8372 35.5959 40.2998 36.1666 40.2998H38.0389C37.6685 40.9385 37.4158 41.6385 37.2929 42.3665H29.8736C29.7507 41.6385 29.498 40.9385 29.1275 40.2998H32.0333C32.604 40.2998 33.0666 39.8372 33.0666 39.2665C33.0666 38.6958 32.6039 38.2332 32.0333 38.2332H27.187C24.8274 36.6628 21.7013 36.9024 19.6086 38.814L16.5333 35.7388ZM23.7667 47.5332C21.484 47.5332 19.6334 45.6827 19.6334 43.3999C19.6334 41.1172 21.484 39.2666 23.7667 39.2666C26.0494 39.2666 27.9 41.1172 27.9 43.3999C27.9 45.6827 26.0494 47.5332 23.7667 47.5332ZM28.3753 47.5332C29.1584 46.6628 29.678 45.5876 29.8736 44.4332H37.2929C37.4884 45.5876 38.0081 46.6628 38.7912 47.5332H28.3753ZM43.4 47.5332C41.1173 47.5332 39.2667 45.6827 39.2667 43.3999C39.2667 41.1172 41.1173 39.2666 43.4 39.2666C45.6827 39.2666 47.5333 41.1172 47.5333 43.3999C47.5333 45.6827 45.6827 47.5332 43.4 47.5332ZM54.7667 47.5332H48.0087C49.8089 45.5437 50.1132 42.6173 48.7609 40.2999H53.1805L54.7667 42.6766V47.5332ZM59.9333 47.5332H56.8333V44.1914L59.9333 46.0514V47.5332Z" fill="#03A34B"/>
<path d="M11.3665 17.5668C14.7907 17.5668 17.5665 14.7909 17.5665 11.3668C17.5631 7.94403 14.7892 5.17014 11.3665 5.16675C7.94234 5.16675 5.1665 7.94258 5.1665 11.3668C5.1665 14.7909 7.94234 17.5668 11.3665 17.5668ZM11.3665 7.23334C13.6492 7.23334 15.4998 9.08389 15.4998 11.3666C15.4998 12.4629 15.0643 13.5142 14.2892 14.2894C13.5141 15.0645 12.4626 15.5 11.3665 15.5C9.08377 15.5 7.23321 13.6495 7.23321 11.3668C7.23321 9.08401 9.08365 7.23334 11.3665 7.23334Z" fill="#03A34B"/>
<path d="M11.3668 3.1C11.9375 3.1 12.4001 2.63742 12.4001 2.06671V1.03329C12.4001 0.462578 11.9374 0 11.3668 0C10.7961 0 10.3335 0.462578 10.3335 1.03329V2.06659C10.3334 2.6373 10.7961 3.1 11.3668 3.1Z" fill="#03A34B"/>
<path d="M4.05971 5.52131C4.25346 5.71506 4.51623 5.82405 4.79027 5.82405C5.20816 5.82393 5.58489 5.57217 5.74473 5.18613C5.90458 4.80008 5.8163 4.35567 5.52083 4.0602L4.79027 3.32964C4.38485 2.93802 3.74027 2.94359 3.34175 3.34223C2.9431 3.74087 2.93753 4.38533 3.32915 4.79076L4.05971 5.52131Z" fill="#03A34B"/>
<path d="M1.03329 12.4001H2.06659C2.6373 12.4001 3.09988 11.9374 3.09988 11.3668C3.09988 10.7961 2.6373 10.3335 2.06659 10.3335H1.03329C0.462578 10.3334 0 10.7961 0 11.3668C0 11.9374 0.462578 12.4001 1.03329 12.4001Z" fill="#03A34B"/>
<path d="M5.0649 16.9304C4.70367 16.8359 4.31944 16.9436 4.05994 17.2122L3.32938 17.9428C2.92601 18.3463 2.92601 19.0004 3.32938 19.4039C3.73286 19.8073 4.38701 19.8073 4.7905 19.4039L5.52106 18.6733C5.78964 18.4138 5.89741 18.0297 5.80284 17.6684C5.70839 17.3072 5.42624 17.025 5.0649 16.9304Z" fill="#03A34B"/>
<path d="M10.3335 20.6666V21.6999C10.3335 22.2706 10.7962 22.7332 11.3668 22.7332C11.9375 22.7332 12.4001 22.2706 12.4001 21.6999V20.6666C12.4001 20.0959 11.9374 19.6333 11.3668 19.6333C10.7962 19.6332 10.3335 20.0959 10.3335 20.6666Z" fill="#03A34B"/>
<path d="M18.6736 17.2122C18.2681 16.8206 17.6236 16.8262 17.225 17.2248C16.8264 17.6234 16.8208 18.2679 17.2125 18.6733L17.943 19.4039C18.3484 19.7955 18.993 19.7899 19.3915 19.3913C19.7902 18.9927 19.7957 18.3482 19.4041 17.9428L18.6736 17.2122Z" fill="#03A34B"/>
<path d="M20.6666 12.4001H21.6999C22.2706 12.4001 22.7332 11.9374 22.7332 11.3668C22.7332 10.7961 22.2706 10.3335 21.6999 10.3335H20.6666C20.0959 10.3335 19.6333 10.7962 19.6333 11.3668C19.6332 11.9374 20.0959 12.4001 20.6666 12.4001Z" fill="#03A34B"/>
<path d="M17.6686 5.8031C18.0298 5.89768 18.4141 5.7899 18.6736 5.52132L19.4041 4.79076C19.7957 4.38534 19.7902 3.74075 19.3915 3.34223C18.9929 2.94359 18.3484 2.93802 17.943 3.32964L17.2125 4.0602C16.9439 4.3197 16.8361 4.70381 16.9307 5.06516C17.0252 5.42638 17.3074 5.70853 17.6686 5.8031Z" fill="#03A34B"/>
</svg>
