<svg width="62" height="62" viewBox="0 0 62 62" fill="none" xmlns="http://www.w3.org/2000/svg">
<path d="M60.9667 59.9331H49.5999C49.0292 59.9331 48.5667 60.3957 48.5667 60.9664C48.5667 61.5371 49.0292 61.9998 49.5999 61.9998H60.9667C61.5374 61.9998 62 61.5372 62 60.9665C62 60.3958 61.5374 59.9331 60.9667 59.9331Z" fill="#03A34B"/>
<path d="M12.4 59.9331H1.03329C0.462578 59.9331 0 60.3957 0 60.9664C0 61.5371 0.462578 61.9998 1.03329 61.9998H12.4C12.9707 61.9998 13.4333 61.5372 13.4333 60.9665C13.4333 60.3958 12.9707 59.9331 12.4 59.9331Z" fill="#03A34B"/>
<path d="M45.4667 59.9331H16.5333C15.9626 59.9331 15.5 60.3957 15.5 60.9664C15.5 61.5371 15.9626 61.9997 16.5333 61.9997H45.4666C46.0373 61.9997 46.4999 61.5371 46.4999 60.9664C46.4999 60.3957 46.0374 59.9331 45.4667 59.9331Z" fill="#03A34B"/>
<path d="M60.9667 55.8H55.6967C59.6147 53.3491 61.9961 49.0547 62 44.4333C62.0088 37.9726 57.4172 32.4207 51.0695 31.2169C44.7219 30.0131 38.4164 33.4985 36.0593 39.514C33.7022 45.5294 35.9611 52.3707 41.4367 55.8H27.3254C27.6973 55.1744 27.8956 54.4611 27.9 53.7333H33.0667C33.4509 53.7332 33.8033 53.5198 33.9817 53.1795C34.1601 52.8393 34.1348 52.428 33.9161 52.112L24.8 38.9433V31.2418L40.5418 15.5H57.8667C58.4374 15.5 58.9 15.0374 58.9 14.4667V8.26671C58.8989 7.99231 58.7898 7.72954 58.5962 7.53506L51.3629 0.301766C51.1693 0.108621 50.9068 0.000121094 50.6333 0H31C30.726 0 30.4632 0.108984 30.2694 0.302734L23.0361 7.53603C22.8432 7.73038 22.7345 7.99279 22.7334 8.26659V13.4333H12.4C12.2508 13.4358 12.1042 13.4711 11.9701 13.5366C11.9344 13.5577 11.8999 13.5808 11.8668 13.6059C11.7767 13.6578 11.6955 13.7237 11.6261 13.8012C11.6137 13.8157 11.594 13.8219 11.5827 13.8363L4.34945 23.1363C4.20982 23.3168 4.1339 23.5384 4.13353 23.7666V37.2H1.03354C0.462578 37.2 0 37.6627 0 38.2333V44.4333C0 45.004 0.462578 45.4666 1.03329 45.4666V52.7C1.03329 53.2707 1.49587 53.7333 2.06659 53.7333H5.27C5.42936 54.4852 5.75607 55.1916 6.22579 55.8H1.03329C0.462578 55.8 0 56.2627 0 56.8333C0 57.4039 0.462578 57.8666 1.03329 57.8666H60.9666C61.5373 57.8666 61.9999 57.404 61.9999 56.8333C61.9999 56.2626 61.5374 55.8 60.9667 55.8ZM24.8 9.3H42.3667C42.9374 9.3 43.4 8.83742 43.4 8.26671C43.4 7.69599 42.9374 7.23341 42.3667 7.23341H26.2611L31.4278 2.06671H50.2056L55.3723 7.23341H46.5C45.9293 7.23341 45.4667 7.69599 45.4667 8.26671C45.4667 8.83742 45.9293 9.3 46.5 9.3H56.8333V13.4333H24.8V9.3ZM24.8 15.5H31.7916L24.8 22.4916V15.5ZM24.8 25.4138L34.7138 15.5H37.6196L24.8 28.3196V25.4138ZM10.3333 55.8C8.62127 55.8 7.23329 54.412 7.23329 52.7C7.23329 50.988 8.62115 49.6 10.3333 49.6C12.0454 49.6 13.4333 50.9879 13.4333 52.7C13.4333 54.4121 12.0454 55.8 10.3333 55.8ZM14.4398 55.8C14.9099 55.1917 15.237 54.4853 15.3967 53.7333H19.6334C19.6377 54.4611 19.836 55.1744 20.208 55.8H14.4398ZM23.7667 55.8C22.6253 55.8 21.7 54.8747 21.7 53.7333C21.7 52.5919 22.6253 51.6666 23.7667 51.6666C24.9081 51.6666 25.8334 52.5919 25.8334 53.7333C25.8334 54.8747 24.908 55.8 23.7667 55.8ZM23.7667 49.5998C22.2953 49.5998 20.937 50.3887 20.2079 51.6667H15.3967C14.9077 49.2588 12.7905 47.5282 10.3334 47.5282C7.8763 47.5282 5.7591 49.2588 5.27012 51.6667H3.1V45.4667H16.5333C17.104 45.4667 17.5666 45.0041 17.5666 44.4334C17.5666 43.8627 17.104 43.4001 16.5333 43.4001H2.06671V39.2668H19.6334C20.2041 39.2668 20.6667 38.8042 20.6667 38.2335C20.6667 37.6628 20.2041 37.2002 19.6334 37.2002H13.4334V29.9669C13.4334 29.3962 12.9708 28.9337 12.4001 28.9337C11.8294 28.9337 11.3668 29.3962 11.3668 29.9669V37.2H6.2V24.1211L11.3667 17.4789V25.8334C11.3667 26.4041 11.8293 26.8667 12.4 26.8667C12.9707 26.8667 13.4333 26.404 13.4333 25.8334V15.5H22.7333V46.5C22.7333 47.0707 23.1959 47.5333 23.7666 47.5333C24.3373 47.5333 24.7999 47.0707 24.7999 46.5V42.5733L31.0949 51.6666H27.3253C26.5964 50.3887 25.238 49.5998 23.7667 49.5998ZM48.7103 55.7927C43.8191 54.3254 41.0119 49.2031 42.407 44.2906C43.5043 40.4261 47.5257 38.1817 51.3909 39.2769C54.3729 40.1231 56.1048 43.2261 55.2597 46.2085C54.9498 47.3015 54.2184 48.2266 53.2264 48.7803C52.2344 49.334 51.0631 49.4708 49.9701 49.1608C49.1481 48.9283 48.4522 48.3787 48.0357 47.6328C47.6193 46.887 47.5162 46.0063 47.7494 45.1844C47.9018 44.6366 47.5831 44.0687 47.036 43.9134C46.489 43.7582 45.9194 44.074 45.7612 44.6203C45.3779 45.969 45.5463 47.4149 46.2292 48.6395C46.9122 49.8641 48.0538 50.7671 49.4027 51.1499C51.0233 51.6104 52.7607 51.4079 54.2318 50.5869C55.7031 49.7659 56.7876 48.3938 57.2467 46.7727C58.4041 42.6926 56.035 38.4465 51.955 37.2888C46.9918 35.8814 41.8272 38.7634 40.4189 43.7265C39.5845 46.6393 39.9499 49.7647 41.4337 52.4065C41.7635 52.9927 42.1439 53.549 42.5704 54.0691C37.7804 51.0778 35.9175 45.0205 38.1987 39.8545C40.4798 34.6885 46.2114 31.9847 51.6489 33.5097C57.0864 35.0346 60.5762 40.3245 59.8384 45.9234C59.1005 51.5222 54.3595 55.7273 48.7125 55.7916L48.7103 55.7927Z" fill="#03A34B"/>
</svg>
