<svg width="63" height="57" viewBox="0 0 63 57" fill="none" xmlns="http://www.w3.org/2000/svg">
<path d="M53.9204 24.548V8.62865V5.03076C53.9204 4.51409 53.5014 4.09512 52.9847 4.09512H49.5272C49.0106 4.09512 48.5916 4.51409 48.5916 5.03076C48.5916 5.54744 49.0106 5.96641 49.5272 5.96641H52.0491V7.69301H27.0194H22.0537V5.96641H45.1607C45.6773 5.96641 46.0963 5.54744 46.0963 5.03076C46.0963 4.51409 45.6773 4.09512 45.1607 4.09512H21.118C20.6014 4.09512 20.1824 4.51409 20.1824 5.03076V8.62865C20.1824 9.14533 20.6014 9.5643 21.118 9.5643H25.7965L22.0269 23.4811H15.6804V12.9785C15.6804 11.4934 14.4765 10.2894 12.9913 10.2894H12.6182V4.20549C12.6182 2.99335 13.6009 2.0107 14.813 2.0107H15.7649C16.2816 2.0107 16.7005 1.59173 16.7005 1.07505C16.7005 0.558379 16.2816 0.139404 15.7649 0.139404H14.813C12.5674 0.139404 10.7469 1.95976 10.7469 4.20549V10.2895H10.5968C9.11174 10.2895 7.90773 11.4934 7.90773 12.9786V23.4813H5.14939C2.30565 23.4813 0.000369141 25.7866 0.000369141 28.6303V46.2095C0.000369141 46.2144 0 46.2191 0 46.2239C0 52.0889 4.77151 56.8603 10.6364 56.8603C16.1858 56.8603 20.7535 52.5876 21.2293 47.1598H22.7432V47.1596H29.0495C31.4905 52.8579 37.1541 56.8603 43.7354 56.8603C52.2258 56.8603 59.1886 50.1992 59.675 41.8287H62.0644C62.5811 41.8287 63 41.409 63 40.8922C62.9998 34.0068 59.3679 27.955 53.9204 24.548ZM9.7794 12.9785C9.7794 12.5276 10.1462 12.1607 10.5972 12.1607H12.9917C13.4425 12.1607 13.8094 12.5275 13.8094 12.9785V23.4808H9.7794V12.9785ZM10.6364 54.9889C5.80338 54.9889 1.87142 51.0569 1.8713 46.224H1.87167V46.2094C1.87954 41.383 5.80806 37.4587 10.6364 37.4587C15.4696 37.4587 19.4015 41.3907 19.4015 46.2239C19.4015 51.0571 15.4696 54.9889 10.6364 54.9889ZM24.4716 45.2883H23.6788V37.5781C23.6788 37.0615 23.2598 36.6425 22.7431 36.6425C22.2263 36.6425 21.8074 37.0613 21.8074 37.5781V45.2885H21.2293C20.7537 39.8603 16.186 35.5874 10.6364 35.5874C7.00334 35.5874 3.7912 37.4194 1.87167 40.207V28.6314C1.87167 26.8205 3.33974 25.3524 5.15062 25.3524H21.8075V33.2117C21.8075 33.7284 22.2264 34.1473 22.7431 34.1473C23.2598 34.1473 23.6788 33.7284 23.6788 33.2117V24.541L27.7355 9.56443H52.0493V23.5165C51.5064 23.2556 50.9495 23.0195 50.3798 22.8096V12.1695C50.3798 11.6528 49.9608 11.2338 49.4442 11.2338H29.7292C29.3067 11.2338 28.9366 11.5169 28.8262 11.9248L25.381 24.6431C25.2807 25.0136 25.4152 25.4179 25.7451 25.6531C25.9064 25.768 26.1037 25.8216 26.3016 25.8235L31.6835 25.8759C27.2893 29.4098 24.4716 34.8282 24.4716 40.893V45.2883ZM48.5084 13.105V22.2269C46.9814 21.8363 45.3823 21.6281 43.7352 21.6281C40.3615 21.6281 37.1882 22.501 34.4275 24.0312L27.5039 23.9639L30.4454 13.105H48.5084ZM43.7353 54.9889C35.9623 54.9889 29.6387 48.6652 29.6387 40.8923C29.6387 33.1194 35.9624 26.7958 43.7353 26.7958C51.5082 26.7958 57.8318 33.1195 57.8318 40.8923C57.8319 48.6653 51.5083 54.9889 43.7353 54.9889ZM59.6752 39.9572C59.1892 31.5862 52.2261 24.9246 43.7354 24.9246C34.9308 24.9246 27.7675 32.0878 27.7675 40.8924C27.7675 42.4165 27.9825 43.8912 28.383 45.2881H26.3427V40.8929C26.3427 31.302 34.145 23.4994 43.735 23.4994C53.0122 23.4994 60.6162 30.7996 61.1038 39.9572H59.6752Z" fill="#03A34B"/>
</svg>
