<svg width="12" height="12" viewBox="0 0 12 12" fill="none" xmlns="http://www.w3.org/2000/svg">
<path d="M0.738366 0.855635C0.593866 1.01726 0.503172 1.22749 0.497421 1.45521C0.426899 4.25765 1.45243 6.86576 3.38542 8.79875C5.31819 10.7315 7.9263 11.7571 10.7285 11.6863C10.9563 11.6806 11.1665 11.5899 11.3281 11.4454C11.5167 11.2768 11.6391 11.0349 11.6457 10.7692L11.6988 8.68156C11.7108 8.19107 11.2863 7.7665 10.7958 7.77854C10.0975 7.79617 9.41566 7.70434 8.77216 7.50644C8.45277 7.40427 8.08793 7.4967 7.87373 7.71478L6.56007 8.7207C5.07433 7.95385 4.21829 7.09822 3.46265 5.6237L4.44184 4.34106C4.68643 4.09648 4.77993 3.74347 4.68444 3.41483C4.48549 2.76809 4.39364 2.08624 4.41083 1.38798C4.41728 1.1423 4.32612 0.912773 4.15456 0.741214C3.98322 0.569882 3.7537 0.478713 3.50824 0.48494L1.41482 0.537816C1.14899 0.544561 0.907029 0.666988 0.738366 0.855635Z" fill="#01873D"/>
</svg>
