<svg width="21" height="13" viewBox="0 0 21 13" fill="none" xmlns="http://www.w3.org/2000/svg">
<path d="M20.8128 11.1966C20.7564 11.102 20.4072 10.3434 18.7271 8.784C16.9682 7.15113 17.2045 7.41628 19.323 4.59288C20.6133 2.87338 21.1292 1.8233 20.9677 1.37439C20.8141 0.946484 19.8651 1.05937 19.8651 1.05937L16.7097 1.07774C16.7097 1.07774 16.476 1.04624 16.3014 1.14994C16.1321 1.25232 16.0232 1.48859 16.0232 1.48859C16.0232 1.48859 15.5231 2.81956 14.8563 3.95102C13.4505 6.33863 12.8874 6.46464 12.6577 6.31632C12.1234 5.97111 12.2573 4.92759 12.2573 4.18729C12.2573 1.87318 12.6078 0.908418 11.5735 0.659025C11.2296 0.576331 10.9775 0.521202 10.0994 0.512014C8.97321 0.5002 8.01895 0.515952 7.47947 0.779784C7.11982 0.955672 6.84286 1.34814 7.01219 1.37045C7.22089 1.39802 7.69343 1.49777 7.94413 1.83905C8.26834 2.27877 8.25653 3.26847 8.25653 3.26847C8.25653 3.26847 8.44292 5.99211 7.82206 6.33076C7.39547 6.56309 6.81136 6.08924 5.55783 3.92214C4.91597 2.813 4.43031 1.58572 4.43031 1.58572C4.43031 1.58572 4.33711 1.35733 4.17041 1.23526C3.96827 1.08693 3.68475 1.03968 3.68475 1.03968L0.684156 1.05805C0.684156 1.05805 0.233935 1.07118 0.0685481 1.26676C-0.0784628 1.44133 0.0567347 1.80098 0.0567347 1.80098C0.0567347 1.80098 2.40628 7.29683 5.06561 10.0677C7.50572 12.6076 10.2753 12.4409 10.2753 12.4409H11.5301C11.5301 12.4409 11.9095 12.3989 12.1024 12.1902C12.281 11.9986 12.2744 11.6389 12.2744 11.6389C12.2744 11.6389 12.2495 9.95484 13.0318 9.70676C13.8023 9.46262 14.792 11.3344 15.8407 12.055C16.6335 12.5997 17.236 12.4803 17.236 12.4803L20.041 12.4409C20.041 12.4409 21.5085 12.3503 20.8128 11.1966Z" fill="white"/>
</svg>
