<svg width="19" height="11" viewBox="0 0 19 11" fill="none" xmlns="http://www.w3.org/2000/svg">
<path d="M18.2232 9.35754C18.1738 9.27479 17.8681 8.61051 16.397 7.24516C14.857 5.81546 15.0639 6.04761 16.9188 3.57551C18.0486 2.06995 18.5002 1.15053 18.3589 0.757473C18.2244 0.382808 17.3935 0.481646 17.3935 0.481646L14.6306 0.497736C14.6306 0.497736 14.426 0.470153 14.2732 0.560946C14.1249 0.65059 14.0295 0.857461 14.0295 0.857461C14.0295 0.857461 13.5916 2.02283 13.0078 3.01351C11.7769 5.10405 11.2839 5.21438 11.0828 5.08451C10.615 4.78225 10.7322 3.86858 10.7322 3.22038C10.7322 1.1942 11.0391 0.349479 10.1335 0.131115C9.83235 0.0587106 9.61169 0.0104409 8.84282 0.00239592C7.85674 -0.00794761 7.02121 0.00584376 6.54886 0.236849C6.23395 0.390853 5.99145 0.734488 6.13971 0.754026C6.32245 0.778161 6.73619 0.865506 6.9557 1.16432C7.23957 1.54933 7.22923 2.41588 7.22923 2.41588C7.22923 2.41588 7.39243 4.80064 6.84882 5.09716C6.4753 5.30058 5.96387 4.88569 4.86631 2.98823C4.30431 2.01708 3.87908 0.942508 3.87908 0.942508C3.87908 0.942508 3.79748 0.742533 3.65152 0.63565C3.47453 0.505781 3.22629 0.464407 3.22629 0.464407L0.599032 0.480497C0.599032 0.480497 0.204828 0.49199 0.0600192 0.663233C-0.0687002 0.816087 0.0496756 1.13099 0.0496756 1.13099C0.0496756 1.13099 2.10689 5.94303 4.43533 8.36916C6.57184 10.593 8.99682 10.4471 8.99682 10.4471H10.0955C10.0955 10.4471 10.4277 10.4103 10.5966 10.2275C10.7529 10.0598 10.7472 9.74485 10.7472 9.74485C10.7472 9.74485 10.7253 8.27032 11.4103 8.05311C12.0849 7.83934 12.9515 9.47821 13.8698 10.1092C14.5639 10.5861 15.0915 10.4815 15.0915 10.4815L17.5475 10.4471C17.5475 10.4471 18.8324 10.3678 18.2232 9.35754Z" fill="#01873D"/>
</svg>
