<svg width="18" height="18" viewBox="0 0 18 18" fill="none" xmlns="http://www.w3.org/2000/svg">
<path d="M17.081 4.7819C16.8865 4.05896 16.3165 3.48908 15.5937 3.29442C14.2732 2.93311 8.991 2.93311 8.991 2.93311C8.991 2.93311 3.70902 2.93311 2.3885 3.28072C1.67957 3.47518 1.09568 4.05907 0.901222 4.7819C0.553711 6.10232 0.553711 8.84069 0.553711 8.84069C0.553711 8.84069 0.553711 11.5929 0.901222 12.8995C1.09589 13.6223 1.66566 14.1922 2.3886 14.3869C3.72292 14.7483 8.99121 14.7483 8.99121 14.7483C8.99121 14.7483 14.2732 14.7483 15.5937 14.4007C16.3167 14.2061 16.8865 13.6362 17.0812 12.9134C17.4286 11.5929 17.4286 8.8546 17.4286 8.8546C17.4286 8.8546 17.4425 6.10232 17.081 4.7819ZM7.30927 11.3705V6.31089L11.7017 8.84069L7.30927 11.3705Z" fill="white"/>
</svg>
